<svg xmlns="http://www.w3.org/2000/svg" width="30.769" height="32" xmlns:v="https://vecta.io/nano"><path d="M19.692 0C13.574 0 8.615 3.857 8.615 8.615c0 2.837 1.78 5.354 4.5 6.923.182.875-2.706 4.825-3.154 5.385a21.5 21.5 0 0 0 9.731-3.692c6.118 0 11.077-3.857 11.077-8.615S25.8 0 19.692 0zm-16 2.462C1.653 2.463.001 4.115 0 6.154v22.154C.001 30.347 1.653 32 3.692 32H14.77c2.04-.001 3.69-1.653 3.692-3.692v-7.462c-.735.373-1.563.767-2.462 1.115v3.27c-.001.34-.276.614-.615.615H3.077c-.34-.001-.614-.276-.615-.615V6.77c.001-.34.276-.614.615-.615H6.5a10.14 10.14 0 0 1 1.962-3.692zm9.654 2.423a3.57 3.57 0 0 1 .885.115 1.86 1.86 0 0 1 .692.346 1.65 1.65 0 0 1 .462.615 1.99 1.99 0 0 1 .154.846v.23h-1.385A1.54 1.54 0 0 0 14 6.231c-.144-.19-.377-.293-.615-.27a.91.91 0 0 0-.385.076.75.75 0 0 0-.269.192.64.64 0 0 0-.115.269c-.025.1-.037.204-.038.308a.98.98 0 0 0 .115.538c.16.197.374.344.615.423l1.115.462a3.24 3.24 0 0 1 .654.385c.163.117.306.26.423.423.11.15.187.32.23.5.034.203.047.41.038.615a1.9 1.9 0 0 1-.654 1.615c-.523.38-1.16.57-1.808.538-.637.058-1.272-.135-1.77-.538a2.11 2.11 0 0 1-.5-1.538v-.268h1.423v.192a2.42 2.42 0 0 0 .038.462.8.8 0 0 0 .154.346.83.83 0 0 0 .308.231 1.15 1.15 0 0 0 .462.077.89.89 0 0 0 .577-.232c.188-.163.288-.406.27-.654a1.29 1.29 0 0 0-.038-.423.85.85 0 0 0-.231-.307c-.116-.097-.245-.175-.385-.23A5.5 5.5 0 0 0 13 9.154a5.3 5.3 0 0 1-.846-.346 2.15 2.15 0 0 1-.577-.423 1.7 1.7 0 0 1-.346-.615 2.42 2.42 0 0 1-.116-.77 2 2 0 0 1 .615-1.577 2.36 2.36 0 0 1 1.616-.538zm12.577 0a3.88 3.88 0 0 1 .923.115 1.86 1.86 0 0 1 .692.346c.2.166.36.377.462.616a1.99 1.99 0 0 1 .154.846v.23H26.77a1.51 1.51 0 0 0-.192-.808c-.128-.2-.35-.293-.577-.27a1.11 1.11 0 0 0-.423.077c-.092.044-.17.1-.23.192a.71.71 0 0 0-.154.269c-.025.1-.037.204-.038.308-.002.2.052.377.154.538.16.197.374.344.615.423l1.115.462a3.24 3.24 0 0 1 .654.385 1.86 1.86 0 0 1 .423.423c.096.152.162.322.192.5a2.83 2.83 0 0 1 .077.615 1.9 1.9 0 0 1-.654 1.615c-.538.38-1.188.57-1.846.538a2.35 2.35 0 0 1-1.731-.538c-.377-.42-.57-.974-.538-1.538v-.27h1.462v.192a2.42 2.42 0 0 0 .038.462.8.8 0 0 0 .154.346.7.7 0 0 0 .269.231c.16.057.33.083.5.077a.89.89 0 0 0 .577-.231c.188-.163.288-.406.27-.654a1.24 1.24 0 0 0-.077-.423c-.037-.117-.103-.223-.192-.308-.127-.11-.27-.2-.423-.27a5.13 5.13 0 0 0-.577-.231 5.3 5.3 0 0 1-.846-.346 2.15 2.15 0 0 1-.577-.423 1.7 1.7 0 0 1-.346-.615 2.42 2.42 0 0 1-.115-.77c-.05-.585.16-1.163.577-1.577a2.36 2.36 0 0 1 1.615-.538zm-9.385.154h2.115l1.038 5.038h.038l1-5.038h2.154v7.154h-1.345V6.5l-1.27 5.692h-1.115L17.885 6.5h-.038v5.692h-1.31zM9.23 27.346c.638 0 1.213.384 1.457.974s.11 1.268-.342 1.72-1.13.586-1.72.342-.974-.82-.974-1.457a1.58 1.58 0 0 1 1.577-1.577z" fill="#fff"/></svg>