<svg xmlns="http://www.w3.org/2000/svg" width="216" height="132" xmlns:v="https://vecta.io/nano"><rect width="216" height="132" rx="8" fill="#fff"/><path d="M58.44 78.724h11.007c5.323 0 6.735-.905 8.22-2.354 1.433-1.416 2.24-3.345 2.245-5.36 0-2.57-.833-5.105-4.02-6.3a5.19 5.19 0 0 0 3.186-5.323c0-2.68-1.63-6.662-8-6.662H58.44zm5.214-11.442h6.916c1.955 0 3.91.87 3.91 3.15 0 2.643-1.52 3.8-4.164 3.8h-6.663zm0-10.066h6.228c2.462 0 3.983.652 3.983 2.788 0 2.064-1.7 2.9-3.838 2.9h-6.373zm31.574 15.86a3.26 3.26 0 0 1-3.259 2.1c-4.092 0-4.38-3.26-4.526-4.707h13.217v-.902c0-8.8-5.25-10.61-9.052-10.61-8.437 0-9.233 7.423-9.233 9.74 0 7.93 4.164 10.537 9.6 10.537 3.92.197 7.448-2.365 8.473-6.155zm-7.64-5.9c.3-2.535 1.557-4.055 3.947-4.055 1.63 0 3.62.94 3.91 4.055zm25-7.226v3.96h-3.39v7.568a18.82 18.82 0 0 0 .1 2.678c.066.256.223.48.442.628a1.4 1.4 0 0 0 .845.247c.688-.053 1.364-.216 2-.483l.425 3.854c-1.244.512-2.58.765-3.925.742-.83.012-1.656-.142-2.426-.453-.627-.232-1.176-.636-1.582-1.167-.376-.583-.615-1.243-.7-1.93a24.08 24.08 0 0 1-.159-3.5v-8.186h-2.283v-3.96h2.27v-3.73l4.986-2.9v6.63zm11.768 0v3.96h-3.39v7.568a18.82 18.82 0 0 0 .1 2.678c.066.256.223.48.442.628a1.4 1.4 0 0 0 .845.247c.688-.053 1.364-.216 2-.483l.425 3.854c-1.244.512-2.58.765-3.925.742-.83.013-1.653-.14-2.422-.45-.627-.232-1.176-.636-1.582-1.167-.376-.583-.615-1.243-.7-1.93a24.08 24.08 0 0 1-.159-3.5v-8.188h-2.287v-3.96h2.28v-3.73l4.986-2.9v6.63zm14.25 13.126a3.26 3.26 0 0 1-3.259 2.1c-4.087 0-4.38-3.258-4.526-4.71h13.217v-.9c0-8.8-5.25-10.61-9.052-10.61-8.437 0-9.233 7.423-9.233 9.74 0 7.93 4.164 10.537 9.6 10.537 3.92.194 7.444-2.37 8.467-6.16zm-7.64-5.9c.3-2.535 1.557-4.055 3.947-4.055 1.63 0 3.62.94 3.91 4.055zm16.113 11.55h5.07v-10.03c0-2.136.724-4.6 4.67-4.6.484-.013.968.01 1.448.072v-5.14a8.88 8.88 0 0 0-.978-.072c-3.078 0-4.236 1.883-5.286 3.838h-.072v-3.33h-4.852z"/></svg>