<svg xmlns="http://www.w3.org/2000/svg" width="28" height="28" xmlns:v="https://vecta.io/nano"><path d="M25.687 0H2.34C1.05.002.003 1.048 0 2.34V28l4.667-3.5L9.334 28 14 24.5l4.667 3.5 4.667-3.5 4.667 3.5V2.34c.012-.62-.227-1.218-.663-1.66S26.307-.006 25.687 0zm-4.092 18.755a.5.5 0 0 1-.49.49H6.9a.5.5 0 0 1-.49-.49v-.77a.5.5 0 0 1 .49-.49h14.2a.5.5 0 0 1 .49.49zm0-5.24a.5.5 0 0 1-.49.49H6.9a.5.5 0 0 1-.49-.49v-.784a.5.5 0 0 1 .49-.49h14.2a.5.5 0 0 1 .49.49zm0-5.253a.5.5 0 0 1-.49.49H6.9a.5.5 0 0 1-.49-.49V7.48a.5.5 0 0 1 .49-.49h14.2a.5.5 0 0 1 .49.49z" fill="#fff"/></svg>