<svg xmlns="http://www.w3.org/2000/svg" width="86" height="86" xmlns:v="https://vecta.io/nano"><g fill="#c2f2dd" stroke="#32ad79"><circle cx="43.001" cy="43" r="42" stroke="none"/><circle cx="43.001" cy="43" r="42.5" fill="none"/></g><path d="M28.52 36.555h.132l.3-.645a10.59 10.59 0 0 1 1.339-2.049l-1.42-1.42h-3.615v-1.575h2.038l-2.6-2.6 1.114-1.114 2.6 2.6v-2.036h1.576v3.614l1.4 1.4c.8-.723 1.73-1.315 2.722-1.755a7.85 7.85 0 0 0-7.274-4.837H23.68v3.152c-.013 3.18 1.9 6.05 4.84 7.264z" fill="#2a7c55"/><path d="M30.36 36.62l-.057.12c2.322.678 4.365 2.085 5.825 4.013a23.39 23.39 0 0 1 4.618 8.984 10.09 10.09 0 0 1 .194 3.582l14.584-2.976a5.82 5.82 0 0 1 4.309.8l.758-1.7c1.118-2.49 1.7-5.2 1.706-7.92-.001-1.705-.4-3.386-1.162-4.9-1.208-2.426-3.45-4.175-6.097-4.758s-5.416.064-7.53 1.758l-.972.778v-1.1a12.58 12.58 0 0 1 3.709-8.956l-1.114-1.116c-2.68 2.665-4.18 6.29-4.17 10.07v1.1l-.974-.78c-1.59-1.268-3.565-1.96-5.6-1.962a8.91 8.91 0 0 0-8.025 4.964z" fill="#ff7272"/><path d="M45.295 29.235a6.32 6.32 0 0 0-5.4-5.4 6.32 6.32 0 0 0 5.4 5.4z" fill="#72a84a"/><path d="M29.513 46.704a5.52 5.52 0 0 0-4.107 6.625 5.4 5.4 0 0 0 1.679 2.819l8.7-1.775a5.51 5.51 0 0 0-6.27-7.668z" fill="#669a00"/><path d="M23.56 56.868l1.7-.346a7.1 7.1 0 0 1 8.806-10.766 7.1 7.1 0 0 1 3.529 8.249l1.688-.344c.23-1.18.207-2.394-.066-3.564-.805-3.056-2.27-5.9-4.3-8.33-1.685-1.994-4.334-4.22-7.382-3.5s-4.442 3.88-5.067 6.414a21.62 21.62 0 0 0-.147 9.366c.236 1.006.653 1.962 1.23 2.82z" fill="#85c45d"/><path d="M65.487 55.28l-.325-1.543-1.812.382 1.05-1.53-1.3-.89-2.163 3.152c-.04.062-.072.13-.093.2a4.25 4.25 0 0 0-4.143-3.246 4.32 4.32 0 0 0-.862.087l-.078.013a7.82 7.82 0 0 1-.2 2.852l-.08.3-1.524-.4.08-.3a6.25 6.25 0 0 0 .173-2.137l-4.532.924a7.73 7.73 0 0 1-.378 3.538l-1.485-.53a6.17 6.17 0 0 0 .321-2.693l-3.846.788c.074 1.056-.07 2.116-.42 3.115l-1.485-.53c.258-.728.376-1.497.35-2.27l-3.854.788c.013.916-.136 1.827-.44 2.69l-1.482-.537a6.14 6.14 0 0 0 .344-1.836l-3.853.788a7.62 7.62 0 0 1-.438 2.26l-1.484-.53c.16-.453.266-.922.315-1.4l-10.556 2.153c-.483.1-.817.535-.77 1.024s.464.86.956.852h34.78c1.137.004 2.23-.448 3.03-1.255l.442-.443c.807-.802 1.26-1.893 1.256-3.03 0-.117-.024-.227-.033-.342.018.032.038.064.06.093l2.95 3.152 1.15-1.078-2-2.128z" fill="#eb7551"/></svg>