<svg xmlns="http://www.w3.org/2000/svg" width="39.483" height="35.667" xmlns:v="https://vecta.io/nano"><path d="M9.955 21.268L20.8 31.044 39.482 12.63 28.628 2.86z" fill="#3c996d"/><path d="M11.728 22.858L25.528.646l13.256 7.36-13.8 22.213z" fill="#32ad79"/><g fill="#fff"><path d="M24.982 30.213L39.14 7.415 25.883.05l-14.155 22.8zM26.38 1.858l10.845 6.025-12.74 20.52L13.64 22.38z"/><circle cx="1.397" cy="1.397" r="1.397" transform="rotate(300.424 21.865 -20.149)"/><circle cx="4.891" cy="4.891" r="4.891" transform="rotate(300.424 24.527 -8.271)"/><path d="M25.188 3.55a2.09 2.09 0 0 0 2.518 1.398 2.09 2.09 0 0 0 1.519-2.447L26.68 1.006zM26.9 27.044a2.09 2.09 0 0 0-2.518-1.398 2.09 2.09 0 0 0-1.519 2.447l2.537 1.495zm11.27-19.3L35.637 6.25a2.09 2.09 0 0 0-1.398 2.518 2.09 2.09 0 0 0 2.447 1.519z"/></g><path d="M27.03 15.6c-.946-.907-2.42-.966-3.435-.137l-4.833 3.895h-2l-1.1-2.268 3.954-6.732-5.52 1.65a2.92 2.92 0 0 0-1.613 1.21l-5.84 9.02-2.52.79 2.824 9.23 8.87-1.94a8.24 8.24 0 0 0 4.7-2.94l6.738-8.3c.83-1.047.727-2.552-.235-3.478z" fill="#edcebe"/><path d="M-.001 23.143l6.908-1.94 3.94 12.524-6.908 1.94z" fill="#fff"/><path d="M23.456 17.586a4.1 4.1 0 0 0 .754 1.508c.492.375 1.05.654 1.644.823 0 0 1.5-1.52.336-2.7-1.207-1.228-2.734.37-2.734.37z" fill="#d9bcad"/></svg>