<svg xmlns="http://www.w3.org/2000/svg" width="84" height="84" xmlns:v="https://vecta.io/nano"><g fill="#c2f2dd"><path d="M42 83.5a41.24 41.24 0 0 1-16.154-3.261 41.36 41.36 0 0 1-13.19-8.894c-3.79-3.78-6.812-8.26-8.896-13.19A41.24 41.24 0 0 1 .5 42a41.24 41.24 0 0 1 3.261-16.154c2.083-4.93 5.104-9.4 8.894-13.2A41.36 41.36 0 0 1 25.846 3.76 41.24 41.24 0 0 1 42 .5a41.24 41.24 0 0 1 16.154 3.261 41.36 41.36 0 0 1 13.191 8.894 41.36 41.36 0 0 1 8.894 13.191A41.24 41.24 0 0 1 83.5 42a41.24 41.24 0 0 1-3.261 16.154 41.36 41.36 0 0 1-8.894 13.19 41.36 41.36 0 0 1-13.191 8.895A41.24 41.24 0 0 1 42 83.5z"/><path d="M42 1a40.74 40.74 0 0 0-15.959 3.222C21.17 6.28 16.743 9.264 13.01 13.01c-3.745 3.734-6.73 8.16-8.787 13.03A40.74 40.74 0 0 0 1 42a40.74 40.74 0 0 0 3.222 15.959C6.28 62.83 9.264 67.257 13.01 70.99c3.734 3.745 8.16 6.73 13.032 8.787A40.74 40.74 0 0 0 42 83a40.74 40.74 0 0 0 15.959-3.222c4.872-2.058 9.298-5.042 13.032-8.787 3.745-3.734 6.73-8.16 8.787-13.032A40.74 40.74 0 0 0 83 42a40.74 40.74 0 0 0-3.222-15.959c-2.058-4.872-5.042-9.298-8.787-13.032-3.734-3.745-8.16-6.73-13.03-8.787A40.74 40.74 0 0 0 42 1m0-1c23.196 0 42 18.804 42 42S65.196 84 42 84 0 65.196 0 42 18.804 0 42 0z" fill="#32ad79"/></g><rect width="24" height="4" rx="2" fill="#f6ac52" x="31.056" y="58.676"/><path d="M55.056 36.63c0 8-10 20-12 20s-12-12-12-20c0-6.627 5.373-12 12-12s12 5.373 12 12z" fill="#32ad79"/><circle cx="4" cy="4" r="4" transform="matrix(-1 0 0 -1 47.056 41.129)" fill="#c2f2dd"/></svg>