<svg xmlns="http://www.w3.org/2000/svg" width="84" height="84" xmlns:v="https://vecta.io/nano"><g fill="#c2f2dd"><path d="M42 83.5a41.24 41.24 0 0 1-16.154-3.261 41.36 41.36 0 0 1-13.19-8.894c-3.79-3.78-6.812-8.26-8.896-13.19A41.24 41.24 0 0 1 .5 42a41.24 41.24 0 0 1 3.261-16.154c2.083-4.93 5.104-9.4 8.894-13.2A41.36 41.36 0 0 1 25.846 3.76 41.24 41.24 0 0 1 42 .5a41.24 41.24 0 0 1 16.154 3.261 41.36 41.36 0 0 1 13.191 8.894 41.36 41.36 0 0 1 8.894 13.191A41.24 41.24 0 0 1 83.5 42a41.24 41.24 0 0 1-3.261 16.154 41.36 41.36 0 0 1-8.894 13.19 41.36 41.36 0 0 1-13.191 8.895A41.24 41.24 0 0 1 42 83.5z"/><path d="M42 1a40.74 40.74 0 0 0-15.959 3.222C21.17 6.28 16.743 9.264 13.01 13.01c-3.745 3.734-6.73 8.16-8.787 13.03A40.74 40.74 0 0 0 1 42a40.74 40.74 0 0 0 3.222 15.959C6.28 62.83 9.264 67.257 13.01 70.99c3.734 3.745 8.16 6.73 13.032 8.787A40.74 40.74 0 0 0 42 83a40.74 40.74 0 0 0 15.959-3.222c4.872-2.058 9.298-5.042 13.032-8.787 3.745-3.734 6.73-8.16 8.787-13.032A40.74 40.74 0 0 0 83 42a40.74 40.74 0 0 0-3.222-15.959c-2.058-4.872-5.042-9.298-8.787-13.032-3.734-3.745-8.16-6.73-13.03-8.787A40.74 40.74 0 0 0 42 1m0-1c23.196 0 42 18.804 42 42S65.196 84 42 84 0 65.196 0 42 18.804 0 42 0z" fill="#32ad79"/></g><path d="M42 22c-11.046 0-20 8.954-20 20s8.954 20 20 20 20-8.954 20-20v-2c-1.2 1.8-2.375 3.413-3.375 4.813-.785 4.303-3.148 8.16-6.625 10.812-.2-.6-.425-1.4-.625-2-.158-.838-.41-1.655-.75-2.437a7.1 7.1 0 0 0-.813-2.188c-.303-.253-.64-.463-1-.625-1.4-.4-3.187.213-4.187-1.187a2.3 2.3 0 0 1-.25-2c.4-.6.6-1.212 1-1.812a11.53 11.53 0 0 0 1.25-2.75 32.11 32.11 0 0 1-4-7.812h-.25c-.2 0-.175.013-.375-.187a2.32 2.32 0 0 1-.375-2c0-1.002.575-1.627.375-2.627 0-.2-.187-1.812-.187-1.812-.6 0-1.637 0-1.437-1V25H43c.438-1.09 1.05-2.105 1.813-3zm12 0c-4.413.013-7.987 3.587-8 8 0 4.4 8 14 8 14s8-9.6 8-14c-.013-4.413-3.587-7.987-8-8zm0 5c1.64.04 2.96 1.36 3 3a3 3 0 1 1-6 0c.04-1.64 1.36-2.96 3-3zM34 28.19a5.2 5.2 0 0 1 2 .188 4.46 4.46 0 0 1 1.625 1c.4.4 1 1.025 1 1.625 0 .2-.05.375-.25.375a.72.72 0 0 1-.562.25 3.97 3.97 0 0 1-1.625-.25c-.295-.297-.632-.55-1-.75-1-.4-2.8 2.2-3 3-.2.6-.187 1.988.813 2.188.6 0 1.975-1.225 2.375-1.625.4-.2.6-.363 1-.562a3.23 3.23 0 0 1 3.25 2.563c.4 1.6-2.425 2.788-3.625 3.187-.4.2-.6-.2-1 0a3.87 3.87 0 0 0-2.187 2.813c-.047 1.012-.194 2.017-.437 3a.61.61 0 0 1-.377-.19v-.375c.027-.646-.28-1.26-.813-1.625-.2 0-.175-.187-.375-.187-.6-.2-1.213-.787-1.812-.187a2.4 2.4 0 0 0-.812 1.563c-.033.226.036.455.188.625.4.2.85 0 1.25 0 .2 0 .363.363.563.563.4.6.638 1.625 1.438 1.625h4a6 6 0 0 1 2 .813c.2.4.175.788.375 1.188.8 1 2.175.975 3.375 1.375.4.2.625.413.625.813-.028.68-.154 1.355-.375 2a5.02 5.02 0 0 1-.815 1.809 4.2 4.2 0 0 1-1.187.813c-.693.45-1.254 1.075-1.625 1.812a2.5 2.5 0 0 1-.375.563 12.67 12.67 0 0 1-4.437-2v-.375c-.2-.8-.362-1.4-.562-2-.503-1.027-.92-2.092-1.25-3.187 0-1 .225-2.012-.375-2.812-.6-1-2.187-1.025-3.187-1.625-.924-.802-1.8-1.657-2.625-2.562V42c.048-5.236 2.488-10.163 6.623-13.375.713-.22 1.446-.366 2.188-.437z" fill="#32ad79"/></svg>