<svg xmlns="http://www.w3.org/2000/svg" xmlns:xlink="http://www.w3.org/1999/xlink" width="763.818" height="568.686" xmlns:v="https://vecta.io/nano"><style><![CDATA[.V{fill:#ff9575}.W{fill:#110809}.X{fill:none}.Y{stroke-miterlimit:10}.Z{fill:#fff}.a{fill:#2155b5}.b{stroke:#fff}.c{fill:#fad100}.d{fill:#0e398a}.e{fill:#111314}.f{stroke:#110809}.g{stroke-width:2}.h{fill:#f02b66}.i{fill:#61c79d}.j{fill:#32ad79}.k{fill:#138f70}.l{fill:#47ba9b}]]></style><path d="M610.71 487.57a257.23 257.23 0 0 0 18.267-20.524 223.8 223.8 0 0 0 36.279-64.531c3.442-9.773 3.336-17.52 4.255-27.435 1.065-11.48 5.9-22.567 9.207-33.56 13.575-45.155 27.282-90.712 32.778-137.7 4.528-38.708 10-91-35.688-105.942-21.2-6.934-44.422-3.507-65.875 2.6s-42.236 14.86-64.22 18.65c-31.513 5.43-64.12.362-94.46-9.733C373.57 83.564 300.235 22.578 213.3 40.943c-40.12 8.476-75.048 34.877-99.165 68.04s-38.2 72.715-46.62 112.845c-17.7 84.305-20.5 194.992 34.558 265.742z" opacity=".54" fill="#e7f4ef"/><path d="M668.463 64.1c-9.107-21.023-23.707-39.774-42.97-49.854-35.65-18.657-76.722-17.17-114.5-5.968A278.29 278.29 0 0 0 400.481 71.6c-16.82 15.74-31.73 33.622-50.14 47.464-32.2 24.214-73 34.4-113.17 37.515-29.882 2.317-60.692 1.17-88.833 11.484-34.315 12.577-60.854 41.18-78.342 73.272-12.914 23.7-21.45 49.42-28.8 75.3-5.942 20.915-6.293 42.3-9.957 63.788-5.373 31.5-6.818 65.424-1.453 97.8h651.1q4.58-7 8.918-14.143c21.288-35.2 35.282-74.293 43.575-114.48 7.865-38.118 17.772-84.412 9.65-122.91-1.26-5.978-2.962-11.96-6.157-17.17-10.56-17.208-34.294-21.82-46.71-37.74-13.466-17.268-9.724-41.667-10.994-63.528-.994-15.225-4.616-30.164-10.704-44.154z" fill="#d5ebe2" opacity=".56"/><path d="M625.97 485.008c13.027-10.25 22.946-23.434 27-42.2 6.51-30.112 6.584-61.195 6.632-92 .048-29.948.087-59.972-2.72-89.818-2.185-23.245-6.61-52.834-15.56-74.416-5.274-12.73-14.658-24.192-27.304-29.655-6.532-2.82-14.516-3.825-20.48.056-3.04 1.98-5.225 5.008-7.968 7.38-7.953 6.88-20.833 7.18-29.1.68-5.422-4.265-8.6-10.685-11.83-16.783-8.95-16.918-19.8-33.247-34.76-45.184-43.054-34.356-91.747-3.483-127.412 26.814-17.467 14.837-34.83 30.747-49.686 48.246-12.95 15.256-22.99 33.007-35.84 48.555a411.6 411.6 0 0 1-90.774 81.485c-20.366 13.4-42.162 25.177-59.377 42.44-12.62 12.654-22.36 27.867-31.168 43.417-24.07 42.5-38.82 107.35 13.2 136.65 16.185 9.114 34.807 12.87 53.225 15.268 37.372 4.862 75.233 4.584 112.723 1.272 19.224-1.7 38.316-4.32 57.4-7.2 13-1.966 25.857-.7 38.7-2.784A924.82 924.82 0 0 1 495.12 525.76c29.76-1.487 55.085-3.387 83.206-15.315 17.176-7.288 34.092-14.775 47.644-25.437z" style="mix-blend-mode:multiply" opacity=".6" fill="#e7f4ef"/><use xlink:href="#B" fill="#f0f0f0"/><use xlink:href="#B" y="0.001" fill="#a1e3dd"/><path d="M-14.498 481.16h775.95m-775.95 11.657h775.95m-775.95 11.656h775.95m-775.95 11.657h775.95m-775.95 11.655h775.95m-775.95 11.655h775.95m-775.95 11.657h775.95m-775.95 11.656h775.95M-14.498 574.4h775.95m-775.95 11.655h775.95" stroke-width=".75" class="X Y b"/><path d="M664.38 469.016h-3.46V392.68h3.46z" class="W"/><g class="X Y f g"><path d="M692.906 485.037c0-11.273-19.945-16-29.912-16.02-11.862-.023-29.9 4.35-29.9 16.02"/><path d="M662.66 488.05v-18.723"/></g><g class="W"><use xlink:href="#C"/><use xlink:href="#C" x="29.663"/><use xlink:href="#D"/></g><path d="M669.34 367.057v-56.165a17.6 17.6 0 0 1 17.6-17.6h19.38a17.6 17.6 0 0 1 17.6 17.6v62.8c-.04 13.908-11.306 25.173-25.214 25.214h-63.183c-.787 0-1.542-.312-2.098-.87s-.87-1.31-.87-2.098.312-1.542.87-2.098 1.31-.87 2.098-.87h7.91c14.307-.001 25.905-11.598 25.906-25.905z" fill="#f7fae6"/><path d="M214.837 382.69h3.46v76.336h-3.46z" class="W"/><g class="X Y f g"><path d="M186.31 475.046c0-11.272 19.945-16 29.912-16.02 11.864-.023 29.912 4.35 29.912 16.02"/><path d="M216.556 478.06v-18.723"/></g><g class="W"><use xlink:href="#E"/><use xlink:href="#E" x="-29.663"/><circle cx="186.804" cy="477.765" r="4.895"/></g><path d="M216.536 357.066v-56.164c0-9.72-7.88-17.6-17.6-17.6h-19.382c-9.72 0-17.6 7.88-17.6 17.6v62.79c.04 13.91 11.305 25.174 25.214 25.215h63.185a2.97 2.97 0 0 0 2.967-2.971 2.97 2.97 0 0 0-2.967-2.967h-7.91c-14.306-.001-25.903-11.596-25.906-25.902z" fill="#f7fae6"/><path d="M363.872 236.96a28.89 28.89 0 0 0 1.852-4.747c1.548-5.3 1.486-11.227 4.564-15.8 1.645.174 2.248 2.235 2.385 3.884a114.61 114.61 0 0 1-.463 18.436 12.09 12.09 0 0 1-3.683 8.9c-2.176 2.618-7.824 12.57-11.625 11.177-2.7-.993-3.76-6.99-2.975-9.346 1.167-3.506 3.622-4.637 6.027-6.957a20.3 20.3 0 0 0 3.918-5.537z" class="V"/><path d="M303.82 490.784c.15.248.33.477.537.682 2.857 2.83 8.724 2.227 12.643 2.243 5.56.18 11.128-.11 16.64-.868 1.74-.286 3.622-.75 4.8-2.12 2.663-3.095-1.588-5.684-3.99-6.3-2.465-.63-5.057-.8-7.58-1.224a14.6 14.6 0 0 1-6.971-2.755 9 9 0 0 1-3.044-5.125c-.432-2.125-.225-4.643-1.775-6.1-1.37-1.3-4.176-1.348-5.9-.414-2.086 1.253-3.654 3.212-4.422 5.52-1.277 3.465-.986 7.42-1.377 11-.204 1.857-.487 3.934.438 5.46z" class="W"/><path d="M324.345 384.353q-.192-1.368-.416-2.733c-1.73-10.53-5.48-20.147-8.027-30.382-3.51-14.114-7.036-28.12-11.67-41.925-1.9-5.67-3.39-12.794-6.307-17.984-2.68-4.773-6.313-4.385-11.85-3.346-3.1.58-6.4 1.26-8.655 3.466a15.22 15.22 0 0 0-3.115 5.3c-4.37 10.692-6.172 20.47-7.023 31.78-.577 7.677 1.05 13.427 2.885 20.6 2.074 8.1 2.038 15.473 6.7 22.867 3.138 4.978 7.43 9.355 9.28 14.942 1.844 5.56 1.578 11.538 3.425 17.136 1.627 4.924 4 9.564 6.035 14.33 2.306 5.386 2.567 11.4 2.794 17.25q.856 21.974 1.71 43.948l20.36-4.3c.937-.09 1.814-.5 2.488-1.157a4.2 4.2 0 0 0 .533-2.936c-1.11-17.9 1.017-35.814 1.852-53.726.514-11.04.534-22.18-.998-33.138z" class="d"/><path d="M237.216 497.445a3.61 3.61 0 0 0 .537.68c2.857 2.83 8.724 2.23 12.643 2.245a99.24 99.24 0 0 0 16.64-.868c1.74-.288 3.622-.753 4.8-2.12 2.663-3.095-1.588-5.684-3.99-6.3-2.465-.63-5.057-.8-7.58-1.226-2.524-.296-4.926-1.245-6.97-2.755a9 9 0 0 1-3.044-5.123c-.432-2.125-.225-4.645-1.775-6.1-1.37-1.292-4.176-1.35-5.9-.416a10.2 10.2 0 0 0-4.423 5.526c-1.277 3.465-.986 7.42-1.377 11.006-.203 1.847-.487 3.926.438 5.45z" class="W"/><path d="M312.257 201.178l.92-.28c2.72-1.12 4.828-3.35 5.794-6.126a21.23 21.23 0 0 0 1.057-8.57 57.1 57.1 0 0 1-.2-6.512c.153-2.212.72-4.467.155-6.612-1.437-5.453-8.1-6.13-12.78-5.983-5.565.178-12.03 3.422-15 8.262a9.21 9.21 0 0 0-.781 8.568c1.187 2.183 3.09 3.892 5.386 4.84l-9.828 11.16c-2.94 3.333-6.6 6.354-7.7 10.854-.648 2.636 2.837 3.35 4.132 1.437.905-1.25 1.985-2.363 3.207-3.305a3.67 3.67 0 0 0 3.586 3.315 3.08 3.08 0 0 0 3.994 2.654c6.732-2.42 8.968-10.838 15.877-13.118.713-.237 1.452-.39 2.18-.583z" class="V"/><g class="h"><path d="M288.907 223.815c.993-3.618 5.924-10.974 4.1-14.255-1.507-2.72-5.026-3.81-8.1-3.325s-5.78 2.24-8.287 4.073c-14.365 10.5-25.55 25.093-32.856 41.317-1.688 3.386-2.787 7.035-3.25 10.8-.332 3.99.572 7.967 1.47 11.868q5.806 25.22 11.61 50.437c4.167 1.76 9.055-1.594 10.65-5.827s.848-8.938.15-13.405q-1.3-8.3-2.27-16.65c-.708-6.088-1.208-12.6 1.7-18.006 1.277-2.373 3.185-4.457 3.87-7.064.437-1.66.347-3.438.91-5.06 1.336-3.848 5.615-6.076 8-9.222a73 73 0 0 0 7.888-13.292c1.794-4.004 3.27-8.143 4.417-12.38z"/><path d="M312.187 253.097c.05-6.2 1.695-12.32 3.72-18.147 2-5.75 5.283-11.216 6.68-17.108a6.08 6.08 0 0 0 .191-2.618c-.45-1.433-1.427-2.64-2.733-3.38-7.884-5.457-19.58-7.922-29.036-7.5-13.833.618-23.96 12.733-25.507 26.028-.825 7.11.37 14.29 1.877 21.288s3.323 13.97 3.764 21.112c.3 4.87-.056 9.742-.222 14.6-.155 4.53-1.167 9.45 3.74 11.686 11.913 5.424 24.57 2.46 30.887-9.227 2.937-5.43 4.306-11.553 5.468-17.616 1.248-6.518 1.118-12.807 1.17-19.127z"/><path d="M354.71 245.105q-7.618 7.32-15.238 14.638a25 25 0 0 1-4.9 3.971c-1.61-6.755-2.792-13.69-4.577-20.39-1.61-6.047-1.2-12.38-2.337-18.5a16.17 16.17 0 0 0-3.111-7.416c-1.593-2.053-2.386-4.646-4.9-5.846-.633-.3-1.32-.477-1.946-.8-1.548-.787-2.788-2.452-4.523-2.4a1.36 1.36 0 0 0-.892.311c-.16.165-.284.365-.357.584-.354 1.166-.503 2.383-.442 3.6-.07 2.452-.263 5.452-1.44 7.654a35.67 35.67 0 0 0-2.917 6.229c-1.757 5.483-3.1 11.232-2.865 17.028.154 3.862 2.37 5.845 3.62 9.492 1.33 3.89 1.6 8.08 2.393 12.092 1.804 9 6.12 17.303 12.45 23.95.97 1.165 2.222 2.063 3.636 2.6 11 3.378 19.863-10.886 25.85-17.675a77.76 77.76 0 0 0 14.908-25.339 64.89 64.89 0 0 0-8.345-7.692l-4.064 3.9z"/></g><path d="M282.82 278.082c-1.833-.777-3.773-1.272-5.754-1.468-1.224-.117-3.974-1-5.056-.245-1.188.827-1.514 4.005-2.207 5.375-2.06 4.07-5.407 7.358-8.458 10.687a117.2 117.2 0 0 0-12.693 16.605c-2.1 3.318-4.055 6.823-4.785 10.678-1.6 8.458 3.07 15.7 3.22 23.947.155 8.322-4.587 15.907-6.193 24.074-2.364 12.024 2.193 24.324 1.923 36.575-.138 6.31-1.555 12.51-2.635 18.73-3.557 20.466-3.49 41.366-3.412 62.138l13.95-1.387c1.665-.032 3.297-.47 4.753-1.28a9.3 9.3 0 0 0 2.439-2.758c9.03-13.813 6.124-30.674 9.57-46.354q4.1-18.658 8.118-37.32c1-4.668 2.68-9.206 3.76-13.92 2.087-9.12 3.27-17.947 5.854-26.917 2.883-10.006 6.555-20.71 7.97-30.96.348-2.51 8.013-32.28 11.075-30.387-7.563-4.672-13.505-12.502-21.437-15.814z" class="a"/><path d="M325.44 175.29c2.367-2.105 4.01-4.9 2.86-8.2a7.91 7.91 0 0 0-8.782-4.858c-2.59.514-4.79 2.253-7.357 2.87-4.67 1.12-9.633-1.65-14.3-.493a8.84 8.84 0 0 0-5.044 3.447c-1.257 1.783-1.816 3.984-3.08 5.764-2.033 2.865-5.43 4.084-8.576 5.3-2.576.99-7.087 2.048-8.547 4.592a9.4 9.4 0 0 0-1.137 5.966c.182.8.278 1.614.29 2.433-.13 1.946-1.746 3.4-2.958 4.923-2.51 3.16-3.5 7.754-1.63 11.33 1.257 2.4 3.59 4.055 5.99 5.32a15.23 15.23 0 0 0 5.425 1.859 20.91 20.91 0 0 0 17.409-5.89 20.37 20.37 0 0 0 5.718-14.413c-.046-2.613-.457-5.643 1.425-7.457 1.52-1.463 3.27-1.688 3.724-4.005.32-1.632-.575-3.473.31-4.983a5.26 5.26 0 0 1 3.253-2.3 12.72 12.72 0 0 1 5.636.258c3.534.736 6.3 1.154 9.122-1.246z" fill="#1c0029"/><path d="M308.134 186.178l-.1-1.708a5.92 5.92 0 0 0-.062-1.663c-.48-1.2-1.79-1.845-3.036-1.492a5 5 0 0 0-2.819 2.322c-1.356 2.124-1.3 5.626 1.4 6.744 2.045.846 4.42-1.372 4.607-3.384.022-.272.026-.546.01-.82z" class="V"/><path d="M279.037 309.932c-3.2-1.777-12.554-7.777-12.557-7.777-.44-.148-6.262 9.032-6.992 13.5a6.52 6.52 0 0 0 1.151 5.329 5.62 5.62 0 0 0 2.781 1.672 8.8 8.8 0 0 0 6.908-1.317c2.906-1.854 7.163-8.382 8.71-11.4" stroke="#051433" opacity=".6" class="X Y"/><path d="M314.04 190.66a3.66 3.66 0 0 0 1.607 2.248 2.28 2.28 0 0 0 2.638-.215 2.71 2.71 0 0 0 .59-.919c.222-.528.35-1.09.38-1.663 0-.046 0-.1-.048-.117s-.056.084-.015.064" class="Z"/><path d="M235.665 94.92c.094-2.89-.393-5.993-.53-8.778a28.64 28.64 0 0 0-.417-4.213 2.79 2.79 0 0 0-.365-1.032c-.365-.447-.846-.785-1.4-.978-1.116-.5-2.482-1-3.5-.32-.35.266-.644.595-.87.97a18.89 18.89 0 0 0-2.668 7.028c-.327 1.583-.154 5.47-1.65 6.32.832-.472-.45-7.06-2.447-6.46a1.31 1.31 0 0 0-.819 1.139c-.02.495.02.99.125 1.476.5 3.672-1.72 7.25-1.515 10.95.136 2.45 1.294 4.688 1.652 7.1a35.87 35.87 0 0 1 .411 7.773c-.14 1.857.025 7.7-2.022 8.76a12.34 12.34 0 0 1 8.617-1l1.637-10.53a31.78 31.78 0 0 1 1.579-6.818c1.193-3.034 3.327-5.707 3.927-8.966a16.48 16.48 0 0 0 .245-2.42z" class="V"/><path d="M186.213 484.7a12.81 12.81 0 0 0 1.055.833c3.918 2.82 8.7 3.884 13.2 5.4 2.373.8 8.96 2.69 5.983 6.2-3.04 3.583-10.06 2.815-14.133 2.475-4.44-.37-8.86-1.28-13.308-1.024-2.824.163-5.66.794-8.453.347-9.758-1.557-4.71-14.96-4.688-21.5.023-6.387-.2-12.884 1.468-19.112.735-2.745 2.107-5.68 4.776-6.653 1.71-.625 4.423-.192 6.108.483 2.023.812 2.4 2.416 2.975 4.5 1.68 6.513 2.383 13.24 2.082 19.96a12.71 12.71 0 0 0 .439 4.674c.526 1.337 1.385 2.516 2.496 3.427z" class="e"/><path d="M155.2 179.375l.34 1.187a25.23 25.23 0 0 1 .534 4.732l.888 8.285c.65 3.507 9.66 19.207 13.044 19.14 3.7-.076 6.642-15.274 6.01-18.892-.86-4.923-3.47-14.664-3.484-14.728-1.1-2.99-3-5.9-5.92-7.355-3.082-1.53-7.408-1.216-10.726-.86a2.74 2.74 0 0 0-1.51.488c-.794.664-.64 1.9-.417 2.914a100.69 100.69 0 0 0 1.241 5.089z" class="V"/><path d="M173.426 184.63c.05-.067.068-.153.048-.235l-.943-3.63c-4.7-12.818-17.968-9.046-17.01.19l.467 5.044 1.535 1.09c5.2 3.894 12.006 2.543 15.904-2.458z"/><path d="M170.335 152.704c-2.53-.965-6.82 2.648-9.454 3.323-2.562.92-6.588 2.1-8.2 4.278-3.4 4.605-1.78 11.65 1.328 16.34.52.786 1.652 2.812 2.248 3.54 4.768 5.812 12.194 5.442 15.772 4.084 4.275-1.624 6.2-5.606 6.3-10.85.018-.943-.33-3.964-.434-4.9-.637-5.75-4.9-14.8-7.56-15.815z" class="V"/><g fill="#151a36"><path d="M173.54 142.273a8.82 8.82 0 0 0-1.561.792c-2.822 1.655-6.284 1.6-9.484 2.28-4.76 1.016-9.567 3.438-12.094 7.774-3.1 5.324-1.1 12.048.5 17.575a5.56 5.56 0 0 0 .409 1.1c1.96 3.642 4.6.567 4.977-2.21.233-1.734 0-3.512.294-5.238.672-3.915 4.406-7.238 8.387-6.952 3.716.266 8.182-.792 10.07-4.364a12.07 12.07 0 0 0 .717-9.492 2.27 2.27 0 0 0-.71-1.142 1.6 1.6 0 0 0-1.514-.123z"/><path d="M177.84 165.72l-.062.6c-.173-.02-.337-.09-.472-.2-1.93-2.687-2.207-6.2-4.037-8.917-.77-1.144-2.053-1.167-2.725-2.08-.976-1.32-.3-3.923.958-4.8a2.99 2.99 0 0 1 3.933.531c.272.375.486.79.634 1.228.867 2.707 1.33 5.527 1.377 8.37a44.3 44.3 0 0 1 .394 5.268z"/></g><path d="M155.738 174.402a3.54 3.54 0 0 1-1.7 1.645c-.752.332-1.616.292-2.334-.107-1.072-.638-2.025-2.888-2.17-4.08-.136-1.2.365-2.405 1.323-3.157 3.543-2.722 6.422 2.73 4.882 5.698zm23.224-8.988l.008.087a6.6 6.6 0 0 1 0 1.946 2.24 2.24 0 0 1-1.05 1.573c-1.174.626-2.814-.713-3.332-1.7a4.84 4.84 0 0 1 .044-4.267 2.41 2.41 0 0 1 2.439-1.407 2.2 2.2 0 0 1 1.438 1.323 6.55 6.55 0 0 1 .406 1.979z" class="V"/><path d="M194.7 198.556c-.47-.604-1.17-.986-1.93-1.054q-3.27-.752-6.477-1.755a44.88 44.88 0 0 0-5.863-1.925 12.79 12.79 0 0 1-1.575-.32c-.39-.13-.773-.285-1.144-.462q-1.048-.478-2.1-.953a8.93 8.93 0 0 1-1.537 6.709c-1.926 2.426-5.51 3.253-8.468 2.842-2.897-.28-5.463-1.985-6.84-4.548-.775-1.483-1.467-3.01-2.073-4.57-1.077-.232-3.555.528-4.342.7l-6.757 1.647-10.228 2.814c-3.672 2.952.118 8.128-.393 10.39-1.53 6.757-.656 88.5-.656 88.5l55.03-.89q.493-7.43.947-14.866 1-16.092 1.864-32.188l1.312-30.9.07-5.89a37.2 37.2 0 0 1 .013-4.669l.046-.32c.373-2.378 1.29-4.666 1.317-7.1.032-.406-.042-.814-.214-1.183z" class="c"/><path d="M197.827 313.173q-.37-6.928-.817-13.846c-.227-3.54-.544-7.225-2.375-10.263-2.47-4.094-9.766-8.085-14.007-10.338-6.03-3.207-13.645-1.53-18.964 2.442-5.6 4.175-9.09 10.618-11.272 17.245-3.586 10.96-4 22.7-1.193 33.894 1.5 5.938 4.906 12.513 5.074 18.66.2 7.47-2.768 13.816.34 21.28 1.57 3.772 4.293 6.97 5.942 10.706 2.548 5.78 2.34 12.348 2.084 18.66l-3.026 74.943h27.5c.004-.013.008-.026.01-.04q3.2-21.666 5.876-43.406 2.446-19.955 4.43-39.96c2.65-26.72 1.835-53.12.397-79.98z" fill="#d4004a"/><path d="M95.7 481.747c-.14.496-.152 1.02-.03 1.52.4 1.4 2.54 2.513 3.49 3.7 1.76 2.22 4.76 3.014 7.575 3.337 2.548.293 7.94-.048 9.4 2.727.248.522.342 1.103.27 1.676-.615 7.128-12.886 5.4-17.54 5.092L85.7 498.93c-6.33-.422-12.05-3.067-9.766-10.5.5-1.502 1.102-2.97 1.8-4.4l5.024-10.83c1.392-3 2.855-6.1 5.358-8.267 3.016-2.608 10.488-3.723 12.1 1.175.557 1.688-.033 3.517-.62 5.2l-2.306 6.6a37.72 37.72 0 0 0-1.59 3.829z" class="e"/><path d="M169.723 282.635a6.18 6.18 0 0 0-1.2-3.68c-.828-.67-1.708-1.276-2.63-1.808-2.528-1.992-1.39-3.085-5.518-3.7a34.6 34.6 0 0 0-9.378-.085c-5.442.692-11.195 2.65-15.01 6.772-6.755 7.3-9.876 17.55-10.9 27.25-1.376 13.02.344 26.237-1.236 39.233-.934 7.682-3.006 15.177-4.29 22.807-.725 4.295-1.228 8.724-3.19 12.613-1.36 2.7-3.363 5.008-5.108 7.472-7.8 11-7.8 24.352-12.17 36.693-5.08 14.347-14.22 33.416-19.966 47.5l2.1.814c2.112.92 4.262 1.744 6.4 2.608 4.217 1.71 8.3 3.718 12.383 5.728 9.462-16.45 23.513-37.464 33.314-53.61 9.724-16.022 19.536-29.99 24.984-48.3 9.385-31.562 14.66-65.36 11.416-98.295z" class="h"/><g class="i"><path d="M170.286 252.72l.288-1.486c1.463-8.394 2.347-16.878 3.02-25.37l.89-12.758c.2-3.6.855-7.135 1.1-10.75.214-3.116.47-6.436 2.6-8.85a1.1 1.1 0 0 0 .485 0c5.955-1.307 11.057-6.81 15.047-12.537a2.51 2.51 0 0 1 1.941-.12c1.22.45 1.8 1.836 2.07 3.108.85 4 .023 8.06.29 12.087.238 3.6.682 6.614.6 10.258-.1 4 .537 7.745-1.124 11.533-1.908 4.346-1.7 8.7-1.56 13.413.79 26.416 2.765 52.83 5.315 79.033.12.52-.6.784-1.134.812-6.523.194-13.052-.057-19.54-.753a8.34 8.34 0 0 1-3.424-.787 6.62 6.62 0 0 1-2.207-2.28c-3.526-5.462-3.5-11.62-3.848-17.836l-1.24-21.995c-.16-2.824-.608-5.74-.544-8.565.14-2.077.468-4.138.978-6.156z"/><path d="M128.356 250.397c-2.222 17.813-5.513 35.477-7.7 53.3-.194 1.584-1.146 4.086.325 5.312.82.57 1.78.9 2.776.986a140.3 140.3 0 0 0 21.135 1.793c5.345.05 13.164.976 17.943-1.977 4.525-2.8 5.716-8.73 6.487-14 1.187-7.305 1.983-14.67 2.385-22.06.198-3.468.104-6.947-.28-10.4-.457-3.48-.118-7.02-.69-10.486-.467-2.334-1.143-4.622-2.018-6.836-3.103-8.718-5.73-17.598-7.873-26.6-2.08-8.734-3.287-17.593-4.975-26.38-.007-.074-.037-.144-.085-.2-.073-.053-.162-.078-.25-.07-2.87-.08-5.53.7-8.354.9-2.63.18-5.286-.07-7.906.237s-5.32 1.274-6.93 3.363c-2.584 3.346-2.51 8.432-2.33 12.437.17 3.718.874 7.465.77 11.2-.277 9.864-1.207 19.7-2.428 29.492z"/></g><path d="M104.583 336.094c.054-3.172-1.683-6.15-3.274-8.83-.182-.352-.43-.666-.733-.924a1.1 1.1 0 0 0-1.113-.179 1.43 1.43 0 0 0-.542.559c-1.93 3.054-.1 4.6 1.865 6.757.73.8 1.52 1.834 1.157 2.855a4.21 4.21 0 0 1-1.123 1.381c-.636.66-1.1 3.253.592 2.454 1.792-.848 3.137-2.052 3.17-4.074z" class="V"/><path d="M104.906 345.563c-.026-2.4.29-5.615-1.44-7.544-1.537-1.714-4.35-2.214-6.52-2.388-6-.485-8.354 3.182-9.22 8.622-.228 1.432 2.007 1.713 2.234.283.293-1.842.546-3.917 1.892-5.312 1.52-1.575 3.807-1.54 5.838-1.246 2.064.3 4.06.83 4.73 3.072.29 1.594.377 3.218.256 4.834.012 1.443 2.24 1.112 2.23-.32z" class="e"/><path d="M102.397 324.34a37.34 37.34 0 0 0-.925 4.551c-.25 2.31.352 4.357.6 6.61.187 1.688.508 3.928-.938 5.187a4.07 4.07 0 0 1-2.669.9c-2.77-.028-5.3-1.602-6.53-4.078a14.32 14.32 0 0 1-1.147-5.347c-.317-5.08 2.55-9.436 4.62-13.915.562-1.216 1.34-3.052 2.62-3.692 1.764-.88 3.517.342 4.27 1.925a9.82 9.82 0 0 1 .524 5.779c-.11.698-.263 1.4-.425 2.08z" class="V"/><rect width="74.336" height="47.706" rx="1" transform="matrix(.992115 .125333 -.125333 .992115 59.979969 339.561004)" class="d"/><g class="a"><path d="M132.91 350.464l-38.028 14.15a1.3 1.3 0 0 1-1.19-.15l-33.314-23.166a1.1 1.1 0 0 1 .856-1.982l71.342 9.012a1.1 1.1 0 0 1 .334 2.136z"/><path d="M95.565 363.87c.084-1.358-2.022-1.632-2.105-.266q-.123 2-.434 3.958c-.214 1.35 1.892 1.616 2.105.266q.314-1.97.434-3.958z"/></g><path d="M128.78 198.948c-7.763 5.907-12.9 15.26-14.444 24.99-.42 2.65-.616 5.38-1.61 7.873a34.9 34.9 0 0 1-3.892 6.38c-3.963 5.87-6.647 12.507-7.877 19.48-1.394 7.93-.873 16.116-2.457 24.008-2.715 13.515-6.4 26.18-7.57 40 1.252.284 14.866 2.766 14.577 3.6l6.226-17.72c1.512-4.7 3.553-8.785 5.483-13.363 2.912-6.9 1.778-15.272 5.85-21.564 1.583-2.447 3.846-4.382 5.552-6.747 5.27-7.3 4.5-17.458 8.813-25.362 2.393-4.392 6.247-7.874 8.49-12.345 4-7.967 1.84-16.98.358-25.26-1.162-6.5-4.548-10.728-11.46-7.587a31.43 31.43 0 0 0-6.039 3.618z" class="i"/><path d="M174.628 259.136c0 .94-.566 1.8-1.436 2.15s-1.87.16-2.536-.504-.865-1.667-.504-2.536a2.33 2.33 0 0 1 2.15-1.436c1.285 0 2.326 1.04 2.326 2.326zm0 14.452c0 .94-.566 1.8-1.436 2.15s-1.87.16-2.536-.504-.865-1.667-.504-2.536a2.33 2.33 0 0 1 4.476.89z" class="e"/><path d="M164.357 174.596c.383 2.458 2.686 4.14 5.143 3.756s4.14-2.686 3.757-5.143z" class="Z"/><path d="M217.934 111.362c-2.446 6.97-2.67 16.015-3.95 23.158a29.46 29.46 0 0 1-1.788 6.8c-1.3 2.91-3.49 5.33-4.94 8.165-2.788 5.453-2.6 11.96-4.725 17.7-3.412 9.175-12.268 15.253-16.8 23.93-4.64 8.887-4.835 20.187-3.667 30.678.422 3.784 1.02 7.462 1.653 10.884 1.632 8.833 17.294-8.147 19.8-10.812 8.177-8.688 15.682-18.607 18.413-30.446.764-3.312 1.137-6.7 1.806-10.034.715-3.558 1.767-7.038 2.69-10.547 3.843-14.62 7.454-30.663 7.137-45.825l-.4-12.5c-5.1.1-10.2-.285-15.23-1.15z" class="i"/><path d="M153.1 192.793c-.128.917-.307 3.8-.34 4.1q-.3 2.9-.593 5.78l-1.344 13.152 7.276 1.912-5.62 6.678 18.145 27.682-4.46-21.4c-1.455-6.612-3.28-13.08-4.93-19.633q-2.4-9.477-4.8-18.947a16.85 16.85 0 0 0-3.272.4.72.72 0 0 0-.06.277zm27.733 9.41q-.626-4.4-1.1-8.823c-1.448-.105-2.858-.512-4.14-1.195.064 1.052-.242 4-.27 4.395q-.18 2.483-.533 4.942l-1.764 9.227c-1.157 6.308-1.137 12.807-1.438 19.232l-.457 11.084q-.1 2.77-.232 5.54-.064 1.437-.135 2.876c-.028.556.163 2-.127 2.433l11.354-27.5-6.26-6.678c.22.235 3.45-.93 3.8-1.026l2.5-.674c.45-.128.9-.163 1.042-.57a8.22 8.22 0 0 0-.48-2.454q-1.003-5.4-1.77-10.8z" class="j"/><path d="M579.898 491.353a11.51 11.51 0 0 1-1.5 2.5c-3.946 4.942-11.14 5.43-16.875 8.088-2.605 1.208-6.4 4.7-3.848 7.676 1.767 2.063 6.223 1.877 8.635 1.7a244.22 244.22 0 0 0 25.441-3.177 4.42 4.42 0 0 0 2.188-.815c.917-.8 1.034-2.145 1.08-3.355q.444-11.65.158-23.3c0-.012-10.706-.27-11.717.18-2.24 1-1.913 2.848-2.174 5.013-.186 1.896-.654 3.754-1.388 5.512zm65.262 9.88a10.3 10.3 0 0 1-2.29 1.819c-3.744 2.26-7.693 4.16-11.794 5.674-3.128 1.155-6.584 2.265-8.43 5.043-4.186 6.3 4.433 7.83 8.6 7.53a244.25 244.25 0 0 0 25.441-3.179 4.45 4.45 0 0 0 2.188-.814c.915-.792 1.034-2.145 1.08-3.355q.444-11.652.156-23.313c0 .092-10.927-.434-11.85.18-1.755 1.164-.907 3.65-1.068 5.44a8.05 8.05 0 0 1-2.033 4.975z" class="W"/><path d="M646.74 333.613c-1.144-9.235-3.553-18.268-7.16-26.845-.46-1.1-1.35-4.037-2.758-4.293-.8-.145-3.494 1.98-4.352 2.365a43.2 43.2 0 0 1-5.447 1.944c-4.1 1.215-8.323 2-12.337 3.494-3.1 1.15-8.34 3.095-9.733 6.22q-2.91 6.526-5.41 13.223c-1.5 4.012-3.728 8.238-4.47 12.44-.646 3.66-.643 7.064-1.9 10.76-5 14.85-13.864 28.372-17.14 43.7-1.24 6.54-1.892 13.175-1.95 19.83-.8 25.234.25 52.16 2.117 77.34h21.684l2-15.905a85.91 85.91 0 0 1 3.21-15.68c.99-2.92 2.293-5.733 3.093-8.71 2.4-8.9.21-18.952 4.533-27.1 1.067-2.007 2.5-3.8 3.61-5.78 1.724-3.34 2.962-6.906 3.677-10.595 2.51-10.756 4.2-21.912 9.387-31.666 2.94-5.527 6.9-7.5 11.1-11.525 3.31-3.18 5.9-9.677 6.915-14.06 1.506-6.27 1.952-12.748 1.32-19.166z" fill="#d4004a"/><path d="M551.457 191.936c-1.086-2.9-.822-6.078-.526-9.1a54.19 54.19 0 0 0-.274-12.839c-.11-1.193-.436-2.357-.965-3.432-.86-1.548-3.46-3.093-5.13-1.846-.586.5-1.045 1.13-1.34 1.842-.79 1.612-1.73 3.493-1.645 5.312s.65 3.787-.012 5.57c-.588 1.584-1.487-.342-1.69-1.216-.182-.786-1.164-2.852-2.26-2.362-1.228.55-.117 4.186.153 5.154 1.083 3.872 3.218 7.42 3.813 11.433.312 2.11.17 4.26.383 6.384.365 3.63 1.693 7.035 2.3 10.626.43 2.5.717 5.02.86 7.552.072 1.325.1 2.65.23 3.97.323 2.564.843 5.1 1.555 7.584q1.053 4.058 2.1 8.116c.634 2.45 1.427 4.668 2.27 7.02a43.52 43.52 0 0 0 7.329 13.085c3.08 3.885 5.238 9.684 11.045 9.62 2.894-.033 6.52-1.123 9.313-1.94a31.12 31.12 0 0 0 9.686-4.752 28.21 28.21 0 0 0 10.268-14.27c.703-1.915.848-4 .416-5.983-1.473-5.255-7.547-5.89-12.07-5.2l-7.682 1.18c-2.46.376-5.808 2.8-7.278-.344-3.318-7.11-8.1-13.62-11.826-20.53-2.94-5.452-4.875-11.4-7.475-17.02-.53-1.137-1.08-2.378-1.546-3.617z" class="V"/><path d="M673.312 343.655c1.298-12.027-2.066-24.094-9.4-33.715-4.523-5.88-10.88-10.83-18.25-11.642-26.83-2.96-24.02 45.886-22.585 61.87 1.147 12.76 3.22 25.418 4.176 38.2.66 8.856-.085 17.718-.018 26.54.066 8.972 3.645 18.144 5.44 26.94.75 3.673 5.384 35.4 7 51.118h22.84q5.525-42.232 7.76-84.808l1.124-29.236c.212-10.04-2.21-19.86-.8-30.024.715-5.12 2.136-10.12 2.715-15.243z" class="h"/><g class="j"><path d="M610.73 225.576c-3.917-.955-8.87.03-12.406.677-5.63 1.03-10.95 3.14-16.428 4.706l-.878.3-1.06.4q-.062.96-.122 1.92c1.068 10.222 2.746 20.366 4.3 30.525 10.946-4.4 20.227-12.15 26.53-22.128 1.043-1.793 1.856-3.71 2.418-5.708.04-.603.044-1.208.008-1.81-.204-3.068-1.5-5.923-2.362-8.88z"/><path d="M601.846 320.474c5.8-1.45-6.676-48.98-7.6-53.473a127.95 127.95 0 0 1-2.863-18.657c-.22-4.043.038-8.38 2.418-11.655a20.75 20.75 0 0 1 6.094-4.993c11.712-7.324 21.824-16.886 36.348-17.55a6.06 6.06 0 0 1 2.48.258c1.555.607 2.385 2.263 3.074 3.784 3.4 7.5 4.722 15.688 8.2 23.01a122.1 122.1 0 0 1 8.006 23.022c4.163 16.523 7.96 33.262 9.753 50.233-2.153-4.472-25.643.692-30.77 1.293q-17.605 2.068-35.14 4.728z"/></g><path d="M643.366 219.997c2.648 2.983 4 7.613 4.854 11.71 2.276 10.94 4.564 21.995 4.355 33.17a149.92 149.92 0 0 1-2.13 19.8q-2.707 17.743-5.417 35.485l-2.71 17.744c-.445 2.96-.3 8.2-2.423 10.634-1.162 1.34-3.095 1.642-4.858 1.84q-12.815 1.432-25.73 1.606c-1.213-4.462 2.33-9.1 6.643-10.77s9.122-1.14 13.713-.585l-3.715-44.16c-1.484-10.388.754-21.278-1.548-31.5s-2.93-20.69-3.84-31.23c-.3-3.42-.523-7.136 1.374-10 1.662-2.507 4.6-3.8 7.38-4.937 2.924-1.2 6.075-2.395 9.168-1.744 1.907.416 3.623 1.448 4.885 2.936z" class="V"/><path d="M619.593 261.066c11.77-2.2 23.76-2.992 35.717-2.39-.605-9.005-1.854-17.956-3.738-26.783-1.14-5.343-2.705-10.97-6.776-14.613-7.046-6.3-22.138-4.646-25.552 4.886-3.977 11.1-1.763 27.703.35 38.9z" class="j"/><path d="M617.826 211.435l2.434 13.64c.322 3.424-3.892 20.366-7.046 21.2-3.46.91-10.194-12.416-10.563-15.938-.5-4.793-.65-14.518-.656-14.582.975-13.136 14.28-13.137 15.83-4.32z" class="V"/><path d="M615.692 206.338c-.746-.756-1.907-.79-3.55-.883a9.01 9.01 0 0 0-5.858 1.377 10.29 10.29 0 0 0-4.288 8.917l.33 3.71a7.92 7.92 0 0 0 1.43 3.526 23.57 23.57 0 0 0 4.05 4.022c.697.68 1.53 1.2 2.447 1.527 1.59.44 3.244-.324 4.7-1.108 7.44-4.02 2.758-12.924 1.594-19.156-.083-.716-.38-1.39-.854-1.933z"/><path d="M597.066 190.683c2.09-1.56 7.023.657 9.646.588 2.618.176 6.665.212 8.734 1.8 4.38 3.37 4.725 10.337 3.08 15.507-.275.866-.79 3.044-1.15 3.877-2.89 6.652-9.875 8.27-13.552 7.952-4.395-.376-7.235-3.562-8.708-8.4-.265-.87-.74-3.764-.89-4.66-.927-5.497.64-15.02 2.84-16.663z" class="V"/><g class="W"><path d="M592.42 180.352c2.035-1.264 4.727-1.64 6.622-.238 2.066 1.53 2.907 3.34 5.7 3.2 2.674-.145 4.433-1.247 7.18-.174 4.4 1.718 7.143 6.556 7.666 11.073a56.92 56.92 0 0 1-.135 10.941c-.1.19-.63.436-.78-.32-.184-1.707-.505-3.396-.958-5.052a2.34 2.34 0 0 0-1.907-1.586c-.743-.04-1.607.367-2.163-.128a2.07 2.07 0 0 1-.47-.993c-.557-1.713-2.013-2.978-3.787-3.29-4.06-.654-7.725.828-11.74.8-6.612-.054-12.034-8.724-6.045-13.64a7.77 7.77 0 0 1 .817-.586z"/><path d="M593.566 204.728c.077.77.18.616.57.253 1.423-3.933.12-10.616 3.11-11.377.224-.058.786-2.59.227-2.487-.938.17-2.843.748-3.28 1.464-1.423 2.355-.95 9.01-.63 12.147z"/></g><path d="M616.087 204.837c-.033 1.658.968 3.024 2.237 3.05s2.324-1.3 2.36-2.957-.968-3.026-2.237-3.05-2.324 1.296-2.36 2.956zm-24.587-.532c-.035 1.658.966 3.024 2.235 3.05s2.326-1.3 2.36-2.958-.968-3.024-2.237-3.05-2.324 1.295-2.357 2.957z" class="V"/><path d="M608.388 209.414a4.34 4.34 0 1 1-8.617 1.062z" class="Z"/><path d="M415.005 454.956c2.362 3.527 4.056 6.874 3.43 11.58-.924 6.918-6.57 11.5-8.06 18.22a4.1 4.1 0 0 0-.072 1.9c.418 1.277 1.468 2.247 2.774 2.562 6.53 1.718 12.243-7.878 15.933-11.592l13.93-14.023c1.24-1.238 1.072-3.5-.373-4.983l-15.548-16.066-2.283-2.4c-3.787-3.96-9.464-4.4-12.58-.97-2.692 2.963-2.477 8.032.25 12l2.598 3.752zM470.4 466.52h-3.46v-76.336h3.46z" class="W"/><g class="X Y f g"><path d="M498.918 482.54c0-11.272-19.945-16-29.9-16.018-11.864-.023-29.912 4.35-29.912 16.018"/><path d="M468.672 485.552V466.83"/></g><g class="W"><use xlink:href="#D" x="-253.316" y="-2.495"/><use xlink:href="#D" x="-223.651" y="-2.495"/><use xlink:href="#D" x="-193.986" y="-2.495"/></g><path d="M472.022 364.56v-56.164a17.6 17.6 0 0 1 17.6-17.6h19.38a17.6 17.6 0 0 1 17.6 17.6v62.79c-.04 13.908-11.303 25.173-25.21 25.215h-63.186c-.787 0-1.542-.312-2.098-.87s-.87-1.31-.87-2.098.312-1.542.87-2.098 1.31-.87 2.098-.87h7.91c14.307-.001 25.905-11.6 25.906-25.906z" class="Z"/><path d="M405.074 482.314c-.756 4.18-1.865 7.76-5.6 10.708-5.475 4.33-12.72 3.7-18.46 7.488a4.13 4.13 0 0 0-1.371 1.313 3.88 3.88 0 0 0 .21 3.772c3.5 5.776 14.276 2.853 19.51 2.75l19.763-.39c1.752-.026 3.2-1.762 3.2-3.84V481.76l.02-3.307c.035-5.48-3.74-9.742-8.364-9.444-4 .256-7.365 4.05-8.172 8.8l-.746 4.506z" class="W"/><path d="M439.318 310.178c-3.784 3.688-8.228 6.3-13.82 5.873-4.175-.322-7.945-2.508-11.55-4.64-7.577-4.48-12.406-12.2-17.116-19.35-6.51-9.875-14.934-18.8-19.237-29.97-2.122-5.516-3.614-10.2-3.17-16.23.434-5.86 1.915-11.78.6-17.636-.44-1.97-2.69-8 .186-9.084 2.636-1 5.117 3.294 5.68 5.17.524 2.273.81 4.594.856 6.926.843 10.056 5.028 23.86 13.275 30.33 2.673 2.1 6.017 3.144 8.86 5 5.583 3.655 8.68 10.028 13.264 14.878 1.014 1.286 2.45 2.172 4.056 2.5 4.724.493 5.4-5.128 7.24-7.97 3.567-5.5 12.846-12.118 19.657-10.608a11.98 11.98 0 0 1 9.045 9.9c.17 2.052.07 4.118-.3 6.144-.215 2.008-.608 3.993-1.175 5.932-1.218 3.744-3.685 6.93-6.1 10.034-3.066 3.93-6.298 8.95-10.25 12.802z" class="V"/><path d="M446.337 332.08l.056-.237zm13.24-62.913l-.258 1.225zM446.56 331.15l-.16.694.187-.9c-.016.066-.02.13-.026.197z" fill="#7a483a"/><path d="M460.724 266.252c-.056 3.986-.436 7.855-.44 10.023.086 2.694-.14 5.39-.67 8.03-.6 2.288-1.47 4.5-2.567 6.6-3.174 6.5-6.844 13.5-11.627 18.954a106.88 106.88 0 0 1-6.417-8.7c-2.8-4.628-5.48-9.326-8.16-14.023-1.48-2.6-6.067-7.4-5.23-10.286.6-2.082 7.77-7.255 9.523-9.447 4.05-5.07 12.508-14.176 19.546-14.715 5.288-.404 6.14 6.752 6.044 13.563z" class="c"/><g class="d"><path d="M374.1 376.99a14.83 14.83 0 0 1 3.789-9.893c5.04-5.555 13.165-6.78 20.612-7.67l30.316-3.624c17.284-2.064 35.817-3.917 51.2 4.234 10.553 5.59 14.188 18.55 4.048 26.773-5.643 4.574-13.136 5.978-20.29 7.234l-30.637 5.375c-9.012 1.58-19.508 4.927-27.793-.674-2.2-1.484-4.088-3.478-6.546-4.467-7-2.817-19.84-4.336-23.5-11.965a12.44 12.44 0 0 1-1.2-5.322z"/><path d="M387.76 361.444a39.89 39.89 0 0 1 9.745-1c9.5.082 16.342 9.705 11.42 18.568-1.067 1.92-2.654 3.642-3.01 5.8-.325 1.99.455 3.974 1.22 5.84 8.32 20.28 21.08 42.142 23.374 64-6.024 3.018-23.83 4.854-27.325-1.257q-4.647-8.13-9.3-16.26c-1.88-3.473-4-6.81-6.35-9.983-2.98-3.836-6.612-7.133-9.6-10.968a42.81 42.81 0 0 1-6.829-38.759c3.023-9.334 8.88-14.11 16.652-16z"/></g><path d="M412.576 383.882c11.584-16.09 36.135-13.81 45.54-32.617a8.44 8.44 0 0 1 1.032-1.744c1.445-1.69 3.986-1.76 6.21-1.75 12.606.046 25.11-1.84 37.5-3.984 7.367-1.275 7.26-.135 9.91 6.714a58.47 58.47 0 0 1 4.2 15.843c.667 7.518-1.32 15.664-6.946 20.695-3.057 2.733-6.924 4.354-10.733 5.878a496.84 496.84 0 0 1-56.41 18.742 41.52 41.52 0 0 1-10.961 1.856c-7.25-.128-13.976-3.814-17.984-9.858-5.466-8.425-5-14.734-1.36-19.775z" class="a"/><path d="M446.95 258.77c1.187-1.795 2.68-3.37 4.4-4.648 6.2-4.69 15.1-4.255 22.447-4.494 7.7-.25 16.032.332 23.234 3.256 7.378 3 8.915 6.136 9.134 13.436.293 9.717 3.2 19.508 4.3 29.208a260.17 260.17 0 0 1 1.614 30.982c-.04 5.5-.245 11-.65 16.5-.455 6.152-1 6.193-7.035 7.033-14.114 1.962-32.933 6.055-46.925 2.074-.74-25.03-9.18-49.152-12.692-73.944-1.035-7.285-1.37-13.93 2.174-19.393z" class="c"/><path d="M474.603 266.13c2.127-.85 3.99-2.25 5.394-4.06 5.748-7.483.26-12.582-.067-20.162-.238-5.516 3.578-11.032 1.815-16.265-.347-1.027-1.358-2.148-2.327-1.663a2.16 2.16 0 0 0-.768.809c-4.826 7.275-11.234 6.68-19.534 8.18 1.072-.194 1.326 17.97 1.08 19.2a28.47 28.47 0 0 0-.733 4.219c-.22 4.71 3.422 9.19 8 10.325a11.7 11.7 0 0 0 7.14-.582z" class="V"/><path d="M480.045 237.22l-18.254.892 1.5 13.48c6.1 3.212 20.086 2.28 16.757-4.38z"/><path d="M465.947 244.862c2.46.19 4.834-.89 7.04-2.788 1.915-1.645 3.5-3.637 5.334-5.375a20.1 20.1 0 0 0 3.138-3.276c.994-1.76 1.617-3.703 1.828-5.712.434-2.472 1.2-4.72.633-7.268a14.18 14.18 0 0 0-1.764-4.005q-1.607-2.746-3.466-5.337c-2.5-3.475-6.625-6.446-11.127-4.765-2.116.85-3.84 2.46-4.834 4.512-1.353 2.68-1.543 5.8-2.728 8.56-.39.91-.884 1.767-1.326 2.65-1.836 3.678-3.333 8.34-2.383 12.454.7 3.608 2.745 6.8 5.738 8.94a8.27 8.27 0 0 0 3.917 1.409z" class="V"/><path d="M487.524 217.17c-2.7-1.07-2.758-2.52-3.5-5.148a10.95 10.95 0 0 0-5.177-6.361c-2.48-1.345-5.28-2-8.1-1.865-2.247.01-4.46.56-6.45 1.6a8.99 8.99 0 0 0-4.267 4.972 4.47 4.47 0 0 0-.1 2.725c.712 2.17 3.885 3.05 5.777 3.8a62.41 62.41 0 0 1 6.441 2.722c4.027 2.135 5.988 5.416 3.97 9.842-.746 1.635-.983 4.5-3.67 3.8-.766-.307-1.42-.84-1.877-1.527a11.73 11.73 0 0 0-3.841-3.065 10.09 10.09 0 0 0-4.863-.664c-1.42.026-3.034.462-4.418.163-.58-.125-.368-1.047-1.12-1.032-.47.01-.7.567-.812 1.024l-1.257 5.117c-.707 2.876-1.4 6.727-.1 9.526a10.26 10.26 0 0 0 5.016 4.743c4.1 1.97 9.937 2.44 13.833-.273 2.9-2.017 3.645-5.232 6.067-7.5 2.137-1.992 6.356-2.3 7.556-5.184.738-1.768-.184-3.9.534-5.68 1.633-4.047 8.368-8.572.357-11.745zm-29.76 19.93c-.162-.176-.285-.384-.363-.6a3.7 3.7 0 0 1 1.476-3.92 6 6 0 0 1 7.27.021c1.28 1.03 2.824 2.437 2.973 4.167a2.52 2.52 0 0 1-.769 2.112c-.825.614-1.932.692-2.835.2-1.44-.7-1.815-2.36-3.657-1.706-1.09.386-1.192.823-2.36.565a3.23 3.23 0 0 1-1.735-.829z" class="W"/><path d="M478.846 228.75c-.214.217-.4.45-.587.7a11.56 11.56 0 0 0-1.936 4.66 4.95 4.95 0 0 0 2.585.546 3.8 3.8 0 0 0 1.675-.884 6.6 6.6 0 0 0 2.247-4.121 2.08 2.08 0 0 0-.233-1.481c-.5-.548-1.26-.75-1.956-.5a4 4 0 0 0-1.795 1.09z" class="V"/><path d="M467.628 236.6a6.28 6.28 0 0 1-5.337.417 5.08 5.08 0 0 1-3.429-4" class="Z"/><path d="M513.896 336.113l3.4-.223c-3.532-4.48-8.12-8.045-11.587-12.577-3.894-5.1-3.486-10.16-5.324-15.867-1.52-4.712-4.5-8.864-5.976-13.657-3.6-11.655.774-32.583 17.647-27.468 4.793 1.453 8.57 5.3 11.022 9.66s3.746 9.272 5.018 14.115l8.116 30.93c1.213 4.62 2.117 9.36 3.24 13.946 1.58 6.435 5.5 13.65-3.626 16.227-5.485 1.552-11.223 1.934-16.91 2.31-10.66.7-21.382 1.828-32.057 2.114-6.487.174-12.7-1.86-19.1-2.582-5.56-.626-10.91 1.33-16.355.41-2.286-.388-4.722-2.076-4.58-4.4a4.9 4.9 0 0 1 1.984-3.263c4.063-3.376 10-3.374 15.113-2.064a11.12 11.12 0 0 0 3.535.569 11.63 11.63 0 0 0 3.557-1.151c7.388-3.106 14-.664 21.316-1.8s14.14-4.42 21.566-5.24z" class="V"/><path d="M487.406 288.086l-.348-1.16c-1.69-5.7-3.062-11.69-2.08-17.554s4.82-11.6 10.544-13.2c3.692-1.032 7.677-.258 11.22 1.2 8.754 3.613 15.124 11.152 19.22 19.493 1.943 3.956 4.55 8.635 2.447 11.795-2.594 3.9-33.72 18.686-32.446 21.332-3.403-7.075-6.264-14.398-8.557-21.907z" class="c"/><path d="M413.256 384.58c-7.243 13.588-3.88 30.272-5.287 44.93q-2.685 27.938-6.984 55.7c9.39-.74 18.84.02 27.992 2.25 5.237-17.88 10.5-35.882 12.412-54.415.585-5.66.866-11.413 2.6-16.835 2.09-6.574 6.233-12.445 7.592-19.2 1.727-8.6-5.634-22.645-14.937-23.7-7.88-.894-19.55 4.11-23.378 11.3z" class="a"/><path d="M412.61 350.104h-88.04v-3.077h86.515c.842 0 1.524.682 1.524 1.524v1.553z" class="Z"/><path d="M309.448 347.027h87.97l-15.7-46.465c-.6-1.645-2.197-2.723-3.95-2.684h-79.3c-1.258-.072-2.472.47-3.258 1.457s-1.045 2.3-.695 3.5z" fill="#fff5f5"/><path d="M397.843 350.104h-88.396v-3.077h88.396zm-56.908-28.224a3.63 3.63 0 0 0 4.114 2.822c1.984-.166 3.7-1.594 3.58-3.517a4.06 4.06 0 0 0-4.1-3.616.67.67 0 0 0-.334.089.66.66 0 0 0-.345 0 3.85 3.85 0 0 0-2.915 4.222zm3.254-3.1a.76.76 0 0 0 .166-.066.71.71 0 0 0 .138.02c1-.004 1.936.498 2.484 1.335 1.16 2.02-.468 3.4-2.186 3.48-1.278.095-2.406-.827-2.566-2.098a2.41 2.41 0 0 1 1.965-2.67z" fill="#c9cdd1"/><path d="M550.99 272.55l-.008-.105c-.22-3.1 1.94-6.1 1.338-9.147-.03-.334-.203-.64-.472-.838-.487-.274-1.07.153-1.418.6-2.132 2.676-1.923 6.2-1.525 9.395.427 3.435-1.257 6.218-1.8 9.577-.38 2.345.056 4.46-.43 6.737-.572 2.684-.906 5.107-.046 7.8.5 1.1.758 2.266.79 3.46-.128 1.446-1.17 2.628-1.723 3.97-1.48 3.585.562 8.09-1.474 11.392-.212.344-.53.694-.93.672-.487-.025-.76-.56-.927-1.016-2.3-6.28-4.6-13.367-3.672-20.132.2-1.48.582-2.94.682-4.43.054-1.373-.01-2.75-.192-4.11q-.505-4.835-1.012-9.67c-.01-.596-.176-1.18-.478-1.693-.332-.518-1.003-.7-1.55-.42-.32.28-.515.676-.542 1.1-.564 3.267.68 6.607.386 9.91a53.99 53.99 0 0 1-1.162 5.452c-.78 4.028.5 9.275 1.252 13.275.546 2.845.8 5.767 1.206 8.635.22 1.547.876 3.046 1.04 4.566.127 1.172-.848 5.036-1.99 2.3-.47-1.123-.67-2.34-.587-3.555.1-.635.12-1.277.09-1.917a1.85 1.85 0 0 0-1-1.537c-.607-.25-1.343-.02-1.928-.317-.68-.345-.85-1.218-.943-1.972-.283-2.275-.554-4.65.24-6.8.304-.66.55-1.344.736-2.046.312-1.736-1.083-2.5-1.4-3.986-.3-1.4.787-2.618.962-3.953.114-1.047-.444-2.052-1.394-2.508-.294-.087-.564-.242-.787-.452a1.37 1.37 0 0 1-.026-1.251 23.31 23.31 0 0 1 .934-2.426 2.11 2.11 0 0 0-3.473-2.318 4.18 4.18 0 0 0-.69 3.08c.278 6.58.56 13.195 1.877 19.648.854 4.453 2.357 8.757 4.46 12.774 1 1.857 2.46 3.527 3.346 5.4 1.275 2.7 2.124 6.477 6.06 5.675 2.21-.45 3.9-2.2 5.312-3.955 2.1-2.617 4.027-6.155 2.57-9.184a22.2 22.2 0 0 1-1.312-2.4c-.2-.73-.268-1.493-.2-2.248a46.18 46.18 0 0 1 .981-7.906c.638-2.988 1.91-6.53 1.014-9.592-.764-2.6-1.645-4.658-.957-7.53.705-2.94 2.972-5.5 2.89-8.517-.068-2.612-1.894-4.89-2.12-7.482z" fill="#006149"/><path d="M551.245 333.307c3.884-3.292 5.922-8.268 5.463-13.338-.307-2.38-1.1-5.153.52-6.92.544-.592 1.3-.968 1.806-1.6 1.226-1.527.5-3.782-.37-5.536-1.545-3.1-2.4-6.152-.26-9.1 1.648-2.275 4.443-3.867 5.038-6.806.8-3.932-3.2-8.187-1.208-11.668a22.75 22.75 0 0 1 2.163-2.51c1.257-1.632 1.596-3.792.9-5.73a5.53 5.53 0 0 0-2.9-3.225c-1.87-.565-1.856.314-2.485 2.117-1.15 3.296-1.64 6.787-1.44 10.273.312 5.246-1.76 11.06-2.6 16.247-.457 2.816-.994 5.62-1.558 8.415-.286 1.753-.66 3.49-1.118 5.207-.258.838-1.532 2.5-1.468 3.27-.577-6.765 2.852-13.2 3.72-19.934.13-.59.076-1.207-.16-1.765a11.16 11.16 0 0 0-.9-1.081c-1.37-1.9.44-6.33.723-8.56.5-3.85.657-7.76.943-11.63.347-4.683 1.01-9.19.45-13.933a.78.78 0 0 0-.184-.5c-.23-.164-.55-.12-.728.1a1.47 1.47 0 0 0-.283.754c-1.095 6.85-1.394 13.85-2.47 20.75-1.17 7.508-2.008 15.027-2.852 22.573-.815 7.283-2.6 14.5-3.458 21.824-.187 1.6-.733 3.6-2.33 3.8-1.418.174-2.5-1.354-2.676-2.77-.477-3.8 2.8-6.92 4.22-10.476a14.58 14.58 0 0 0 .513-8.259c-.57-2.8-1.653-5.986.033-8.294.68-.93 1.736-1.563 2.27-2.58a5.81 5.81 0 0 0 .5-2.5c.11-2.69.028-5.383-.247-8.06-.24-2.327-1.11-4.842-.912-7.164.4-4.554 1.655-9.007 1.405-13.642-.215-4-3.392 2.212-3.484 3.828-.12 2.117.247 4.254-.048 6.354-.334 2.372-1.5 4.683-1.127 7.048a1.97 1.97 0 0 1 .025.927c-.1.3-.454.534-.725.38a.72.72 0 0 1-.273-.38c-1.58-4 2.18-11.142-1.15-14.474-2.633 3.263-2 10.728-1.82 14.715.457 10.2 2.19 20.542.242 30.686-.067.74-.38 1.438-.89 1.98a2.43 2.43 0 0 1-3.258-.59c-.7-1.014-1.168-2.17-1.37-3.384-.208-1.222-.832-2.333-1.767-3.147a5 5 0 0 0-1.075 4.125c.282 1.443.69 2.86 1.215 4.232.763 2.413 1.134 4.932 1.1 7.462-.038 2.646-.5 5.4.462 7.866 1.617 4.135 8.764 8.042 12.948 6.36 1.058-.428 2.046-1.013 2.93-1.736z" fill="#40a876"/><path d="M526.824 320.695l34.527.585-9.1 29.457-19.725.272z" class="d"/><g class="Z"><path d="M27.322 350.217h684.175v7.016H27.322z"/><path d="M641.56 353.78h6.66v183.164h-6.66zm-61.315 181.7h-6.66l43-181.7h6.66zm-428.23 0h6.66l-43-181.7h-6.662zM85.4 353.78h6.66v183.164H85.4z"/></g><path d="M81.846 499.378q-.2 1.6-.348 3.216c-.34 3.793-1.02 8.162-4.3 10.1-2.94 1.734-6.93.593-9.32-1.846s-3.47-5.86-4.12-9.21a48.8 48.8 0 0 1 2.089-25.961c1.882-5.12 7.24-12.91 6.63-18.438-.646-5.835-7.52-9.226-7.787-15.475-.3-6.948 5.96-12.818 9.554-18.142 1.41-1.858 2.276-4.072 2.5-6.394.29-8.164-11.527-12.3-12.32-20.432-.98-10.037 12.89-14.068 13.027-23.642.074-5.166-4.5-10.557-4.047-16.7.396-6.134 2.867-11.95 7.008-16.492 1.65-1.76 4.02-3.4 6.3-2.64s3.218 3.544 3.185 5.955-.694 4.842-.205 7.2c1.47 7.08 6.343 9.63 5.725 17.687a36.68 36.68 0 0 1-3.978 13.31c-7.288 14.355-5.105 12.68 3.6 25.09 4.585 6.797 4.585 15.697 0 22.494-2.66 3.794-6.81 6.99-7.276 11.6a12.81 12.81 0 0 0 1.252 6.191c.968 2.342 2.2 4.663 2.648 7.133.643 3.508-.317 7.087-1.27 10.524-3.235 11.738-7.048 22.95-8.557 34.875z" class="k"/><path d="M52.87 488.178q-.974-6.713-1.95-13.427c-.574-3.946-1.17-7.968-2.94-11.54-1.578-3.182-4.028-5.882-5.472-9.13-3.125-7.03-1.025-15.18 1.298-22.518 1.61-5.092 3.322-10.562 1.74-15.664-.828-2.674-2.5-4.988-3.9-7.41-2.827-4.886-8.087-16.535-4.78-22.312 5.63-9.834 11.037-.47 11.433 6.264.374 6.065 2.76 11.83 6.783 16.385 2.3 2.584 5.16 4.835 6.425 8.052 3.348 8.506-6.152 17.166-5.4 26.276.6 7.253 7.4 12.353 10.115 19.105 5.033 12.473 8.535 30.622 5.056 43.812-.6 2.286-1.532 4.673-3.5 5.986-3.134 2.1-7.653.43-9.93-2.576s-2.89-6.915-3.432-10.646q-.77-5.326-1.546-10.656z" class="l"/><path d="M73.234 548.266c-12.333 0-22.728-9.2-24.228-21.44l-3.76-30.668h55.432L97.51 526.4c-1.303 12.427-11.78 21.864-24.275 21.865z" class="a"/><path d="M82.663 483.905c.478-4.638.044-9.638 2.467-13.622 3.208-5.274 10.79-7.574 12.125-13.6 1.305-5.9-4.346-12.232-1.716-17.67 2.2-4.56 9-5.422 11.083-10.036 1.84-4.07-.932-8.61-1.66-13.014-.82-5.468 1.538-10.928 6.083-14.077a5.08 5.08 0 0 1 3-1.059c2.888.15 3.98 4.114 2.967 6.823s-3.22 4.86-4.114 7.6c-2.4 7.406 5.153 16.93-.263 22.524-1.61 1.663-4 2.362-5.684 3.943-5.62 5.266-.04 15.253-3.373 22.194-2.232 4.65-7.945 6.768-10.378 11.315-1.573 2.942-1.53 6.438-2.058 9.732-.57 3.562-1.946 7.145-4.645 9.54-2.842 2.525-6.86 3.688-7.552-.735-.366-2.32 3.418-7.032 3.718-9.87z" class="l"/><path d="M52.93 515.885l18.606-4.5q14.087-3.9 28.07-8.13l.344-.133.73-6.96H45.247l2.567 20.95q2.552-.63 5.117-1.223"/><path d="M104.008 499.482H43.03l-3.326-13.3h66.522z" class="a"/><path d="M659.303 475.47c-1.844-7.15-4.318-14.64-2.308-21.747 1.34-4.737 4.568-8.772 5.882-13.517 2.14-7.718-1.075-16.028.332-23.914 1.338-7.5 6.64-13.625 9.493-20.7 3.757-9.3 3.136-19.84 6.32-29.35 1.024-3.055 2.57-6.137 5.29-7.863s6.854-1.528 8.66 1.14a8.77 8.77 0 0 1 1.049 5.322c-.81 19.77-16.834 37.528-13.9 57.1.833 5.57 3.2 11.185 1.8 16.638-1.387 5.4-6.16 9.263-8.458 14.347-2.515 5.56-1.844 11.98-1.03 18.025s1.695 12.39-.468 18.1c-1.124 2.962-10.383 13.177-13.627 7.87-.385-.63 2.457-8.093 2.543-9.5.097-4.045-.435-8.08-1.577-11.962z" class="k"/><path d="M651.953 484.087l-.015-.46c-.238-4.7-3.527-8.7-7.07-11.812-5.87-5.164-11.446-18.6-12.475-26.4-.707-5.373.2-10.836-.2-16.24-.633-8.35-4.364-16.1-6.857-24.094a83.17 83.17 0 0 1-3.747-22.774c-.072-3.05.317-6.643 2.942-8.2 2.155-1.28 5.07-.53 6.916 1.164a14.1 14.1 0 0 1 3.55 6.52c3.6 11.938 2.242 25.186 7.4 36.537 2.355 5.18 6.032 9.863 7.1 15.455 1.15 6.08-.97 12.486.546 18.486 2.536 10.05 12.363 15.747 13.167 26.622.016 1.226.16 2.447.434 3.642.53 1.8 1.824 3.28 2.863 4.855 2.7 4.094 7 13.093 2.615 16.678-8 6.543-17.4-7.312-17.537-14.137-.043-1.95.398-3.887.378-5.832zM677 470.396a25.67 25.67 0 0 1 3.244-7.759c3.013-4.257 8.6-6.7 10.18-11.665.656-2.056.508-4.272.773-6.413.4-3.878 2.42-7.406 5.557-9.72a10.29 10.29 0 0 1 10.9-.6c4.26 2.58 5.557 8.064 6.362 12.978 2.506 15.27 3.782 31.823-3.65 45.4a4.14 4.14 0 0 1-1.332 1.632c-1.73 1.062-3.874-.667-4.824-2.462-4.574-8.632 1.14-20.054-3.37-28.72-.357-.685-.894-1.415-1.667-1.45a2.11 2.11 0 0 0-1.555.861c-2.3 2.57-2.57 6.473-4.84 9.06-2.046 2.337-5.366 3.208-7.493 5.47-1.777 1.9-2.507 4.505-3.175 7-1.206 4.52-2.513 22.647-9.2 14.783-5.838-6.868 2-21.275 4.1-28.407z" class="l"/><path d="M666.444 550.666h-.934c-13.014-.001-23.983-9.71-25.566-22.626l-4.1-33.48h59.687l-3.463 33.03c-1.374 13.117-12.435 23.078-25.624 23.075z" class="a"/><path d="M664.15 510.95q15.165-4.19 30.224-8.755l.37-.14.786-7.493h-59.686l2.764 22.555c8.526-2.1 17.168-3.856 25.542-6.166z"/><path d="M699.107 498.14h-65.652l-3.58-14.325H701.5z" class="a"/><path d="M568.052 499.385c.35-2.478 1.2-4.7 3.15-5.838 2.78-1.63 6.49-.27 9.727-.874 9.09-1.7 9.02-14.4 8.836-21.378q-.178-6.67-.6-13.33c.017-1.183-.25-2.353-.78-3.41-1.1-1.816-3.618-2.347-5.66-1.762-3.98 1.136-6.213 5.434-6.918 9.51s-.36 8.315-1.43 12.312a7.21 7.21 0 0 1-.884 2.143 4.91 4.91 0 0 1-1.989 1.7c-1.16.608-2.55.588-3.695-.05-1.256-.805-1.047-1.82-1.04-3.044-.036-1.49-.162-2.98-.375-4.456l-1.034-10.04-1.84-19.75c-.316-3.018-.656-6.116-2.16-8.818-6.512-11.69-16.433-1.422-17.345 7.1-2.073 19.393 8.027 37.68 7.18 56.93a5.78 5.78 0 0 1-.447 2.383c-1.52 3.03-6.38 2.5-8.626.75-3.52-2.74-2.26-8.675-2.263-12.245 0-2.916-.937-6.208-3.756-7.574-3.2-1.548-7.368.31-9.19 3.166-2.352 3.687-2.09 10-1.737 14.1.145 3.015 1.076 5.94 2.7 8.483a10.68 10.68 0 0 0 7.9 4.676c1.88.113 4.025-.286 5.452.84 1.737 1.372 1.113 3.88 1.182 5.976.136 4.165 3.683 7.722 7.822 9.47s8.808 2.045 13.36 2.313c3.86-6.19 4.117-13.33 4.318-20.25.062-2.296-.303-5.875.144-9.033z" class="k"/><g stroke="#47ba9b" stroke-width=".5" class="X Y"><path d="M555.802 427.747c4.633 32.164 8.63 64.9 2.924 96.922m-7.376-97.14c-1.308 6-2.622 12.03-2.594 18.137.056 11.645 4.964 22.784 6.9 34.294 2.153 12.86.56 25.97-1.04 38.9"/><path d="M561.4 484.303c5.6-.8 12.288-1.607 15.826-6.095a6.58 6.58 0 0 0 1.178-2.1c.937-3.044.468-6.492.454-9.62l.058-12.146m-22.57 51.323c-5.03.82-10.6 1.555-14.935-.914-2.56-1.54-4.478-3.95-5.406-6.8a25.02 25.02 0 0 1-1.114-8.476c.01-3.117.28-6.227.8-9.3m25.77 9.27c6.373-.944 12.628-2.56 18.66-4.82a9.59 9.59 0 0 0 3.478-1.92 8.2 8.2 0 0 0 1.842-3.6c.88-2.908 1.252-22.815.28-27.677"/></g><path d="M537.622 518.012l37.678-.8-2.055 16.8c-1.02 8.327-8.1 14.585-16.48 14.584a16.6 16.6 0 0 1-16.369-13.875z" class="c"/><circle cx="23.312" cy="23.312" r="23.312" transform="matrix(.707107 -.707107 .707107 .707107 443.74603 130.652073)" fill="#80b2ba"/><path d="M475.604 116.22c0 1.1 1.1 17.76 1.1 17.76l13.32-8.88m-87.626 205.368l12.45-7.612h60.547a11.24 11.24 0 0 0 11.212-11.275v-9.8a11.25 11.25 0 0 0-3.272-7.96 11.24 11.24 0 0 0-7.94-3.314H413.62c-6.2.018-11.228 5.064-11.2 11.273z" class="X Y b"/><g class="Z"><use xlink:href="#F"/><use xlink:href="#F" x="14.192"/><use xlink:href="#F" x="28.385"/></g><path d="M557.264 172.28l12.45-7.61h60.547c2.982-.008 5.84-1.2 7.942-3.315s3.28-4.978 3.272-7.96v-9.8c.01-2.983-1.166-5.85-3.27-7.965s-4.96-3.31-7.945-3.317h-61.786c-6.21.018-11.228 5.066-11.21 11.275z" class="X Y b"/><g class="Z"><use xlink:href="#F" x="154.854" y="-158.188"/><use xlink:href="#F" x="169.05" y="-158.188"/><use xlink:href="#F" x="183.24" y="-158.188"/></g><path d="M418.345 218.902l-12.45-7.612h-60.548c-2.982-.008-5.838-1.2-7.94-3.316s-3.28-4.978-3.27-7.96v-9.8c-.008-2.982 1.168-5.845 3.27-7.96s4.96-3.307 7.94-3.316h61.786c2.982.008 5.838 1.2 7.94 3.316s3.28 4.978 3.27 7.96z" class="X Y b"/><g class="Z"><path d="M385.7 195.116c.008 1.305 1.07 2.357 2.375 2.352s2.36-1.065 2.357-2.37-1.06-2.36-2.365-2.362c-.63.002-1.233.253-1.677.7s-.692 1.05-.7 1.68z"/><use xlink:href="#G"/><use xlink:href="#G" x="-14.192"/></g><path d="M155.103 108.242a96.05 96.05 0 0 1 4.334 18.778m12.915-24.57l-3.6 20.946m21.748-10.81a30.3 30.3 0 0 0-6.533 9.365" class="X Y b"/><defs ><path id="B" d="M722.984 566.397c-34.027 3.48-69.564.518-103.452.518h-475.44c-25.374 0-50.942-.013-76.214 1.5-9.58.572-19.508.542-28.344-3.2-6.182-2.618-12.016-7.516-14.715-13.782-3.47-8.062 2.74-14.6.556-22.57-1.312-4.786-6.56-8.1-10.65-10.208-11.942-6.13-19.148-21.357-11.7-33.687 3.407-5.64 9.245-9.48 15.442-11.716 12.937-4.673 27.673-4.62 41.24-4.586 12.828.03 25.616 1.67 38.426 1.67H706.63c7.326-.05 18.617-.68 21.033 8.693 2.262 8.774-9.084 15.53-9.843 23.978-2.128 23.668 45.413 13.808 46 40.758.13 6.095-3.867 11.712-8.987 15.023s-11.232 4.684-17.248 5.677c-4.832.797-9.7 1.43-14.6 1.932z"/><path id="C" d="M628.19 487.755c0 1.98 1.193 3.765 3.022 4.522s3.935.34 5.335-1.06 1.82-3.505 1.06-5.335-2.543-3.022-4.522-3.022c-1.298 0-2.544.515-3.462 1.433s-1.434 2.163-1.433 3.462z"/><path id="D" d="M687.516 487.755c0 1.98 1.193 3.765 3.022 4.522s3.935.34 5.335-1.06 1.82-3.505 1.06-5.335-2.543-3.022-4.522-3.022a4.9 4.9 0 0 0-4.895 4.895z"/><path id="E" d="M251.025 477.767c0 1.98-1.193 3.765-3.022 4.522s-3.935.34-5.335-1.06-1.82-3.505-1.06-5.335 2.543-3.022 4.522-3.022a4.9 4.9 0 0 1 4.895 4.895z"/><path id="F" d="M435.05 306.68c-.007 1.304-1.07 2.357-2.374 2.352s-2.36-1.065-2.356-2.37 1.06-2.36 2.365-2.36c1.3.004 2.368 1.068 2.365 2.378z"/><path id="G" d="M371.51 195.116c.008 1.304 1.07 2.355 2.375 2.35s2.358-1.066 2.355-2.37-1.06-2.36-2.365-2.36a2.37 2.37 0 0 0-2.365 2.38z"/></defs></svg>