<svg xmlns="http://www.w3.org/2000/svg" width="152.26" height="46.786" xmlns:v="https://vecta.io/nano"><path d="M16.28.4l-5.2 45.9H5.2L0 .4h5.335l2.6 35.568v.684a.579.579 0 0 0 0 .479c.068.205.137.274.205.274s.137-.068.205-.274a.579.579 0 0 0 0-.479c-.068-.068-.068-.068 0-.137v-.48l2.6-35.568L16.28.4zm15.8 41.725a1.642 1.642 0 0 0 .821-.479 3.442 3.442 0 0 0 .684-.889 3.686 3.686 0 0 0 .205-1.5l.068-2.326h4.72v2.12a4.848 4.848 0 0 0-.068.958 3.616 3.616 0 0 0-.068.889 3.465 3.465 0 0 1-.137.889 5.966 5.966 0 0 1-.685 1.703 5.329 5.329 0 0 1-.958 1.3 10.294 10.294 0 0 1-1.573 1.163 5.6 5.6 0 0 1-3.01.752h-4.036a5.432 5.432 0 0 1-3.01-.752A10.283 10.283 0 0 1 23.46 44.8a8 8 0 0 1-.958-1.3 5.964 5.964 0 0 1-.684-1.71l-.205-.89a4.206 4.206 0 0 1-.068-.889 2.255 2.255 0 0 1 0-.958V7.592a2.255 2.255 0 0 1 0-.958 3.329 3.329 0 0 1 .068-.821l.205-.89a5.964 5.964 0 0 1 .684-1.71 5.329 5.329 0 0 1 .958-1.3A10.289 10.289 0 0 1 25.033.751a5.6 5.6 0 0 1 3.01-.752h3.83a5.432 5.432 0 0 1 3.01.752 10.288 10.288 0 0 1 1.573 1.163 8 8 0 0 1 .958 1.3 5.963 5.963 0 0 1 .684 1.71 4.006 4.006 0 0 1 .137.889 3.068 3.068 0 0 0 .068.821 4.844 4.844 0 0 0 .068.958v1.984h-4.72v-5.13h-4.58l-1.026.205a1.351 1.351 0 0 0-.752.41 3.441 3.441 0 0 0-.684.889 3.686 3.686 0 0 0-.205 1.5l-.068 3.283v25.445l.068 3.283a11.236 11.236 0 0 0 .205 1.5 3.441 3.441 0 0 0 .684.889 2.5 2.5 0 0 0 .958.479 7.615 7.615 0 0 0 1.163.137h1.7a5.361 5.361 0 0 1 .958-.342m21.41.01a1.641 1.641 0 0 0 .821-.479 3.444 3.444 0 0 0 .684-.889 3.686 3.686 0 0 0 .205-1.5l.068-2.326h4.72v2.12a4.848 4.848 0 0 0-.068.958v.958a3.465 3.465 0 0 1-.137.889 5.964 5.964 0 0 1-.684 1.71 5.329 5.329 0 0 1-.958 1.3 10.294 10.294 0 0 1-1.573 1.163 5.6 5.6 0 0 1-3.01.752h-4.036a5.432 5.432 0 0 1-3.01-.752 10.286 10.286 0 0 1-1.573-1.163 8 8 0 0 1-.958-1.3 5.963 5.963 0 0 1-.684-1.71l-.205-.89a4.206 4.206 0 0 1-.068-.889 2.255 2.255 0 0 1 0-.958V7.66a2.255 2.255 0 0 1 0-.958 3.329 3.329 0 0 1 .068-.821l.205-.89a5.963 5.963 0 0 1 .684-1.71 5.327 5.327 0 0 1 .958-1.3A10.289 10.289 0 0 1 46.512.819a5.6 5.6 0 0 1 3.01-.752h3.83a5.432 5.432 0 0 1 3.01.752 10.288 10.288 0 0 1 1.573 1.163 8 8 0 0 1 .958 1.3 5.963 5.963 0 0 1 .684 1.71 4 4 0 0 1 .137.889 3.068 3.068 0 0 0 .068.821 4.844 4.844 0 0 0 .068.958v1.915h-4.72v-5.13h-4.582l-1.026.205a1.351 1.351 0 0 0-.752.41 3.441 3.441 0 0 0-.684.889 3.686 3.686 0 0 0-.205 1.5l-.068 3.283v25.445l.068 3.283a11.236 11.236 0 0 0 .205 1.5 3.441 3.441 0 0 0 .684.889 2.5 2.5 0 0 0 .958.479 7.615 7.615 0 0 0 1.163.137h1.7a4.753 4.753 0 0 1 .889-.342m54.378.012a1.642 1.642 0 0 0 .821-.479 3.442 3.442 0 0 0 .684-.889 3.687 3.687 0 0 0 .205-1.5l.068-2.326h4.72v2.12a4.842 4.842 0 0 0-.068.958 3.616 3.616 0 0 0-.068.889 3.465 3.465 0 0 1-.137.889 5.966 5.966 0 0 1-.685 1.703 5.326 5.326 0 0 1-.958 1.3 10.288 10.288 0 0 1-1.573 1.163 5.6 5.6 0 0 1-3.01.752h-4.036a5.432 5.432 0 0 1-3.01-.752 10.29 10.29 0 0 1-1.573-1.163 8 8 0 0 1-.958-1.3 5.965 5.965 0 0 1-.684-1.71l-.205-.89a4.208 4.208 0 0 1-.068-.889 2.253 2.253 0 0 1 0-.958V7.592a2.253 2.253 0 0 1 0-.958 3.331 3.331 0 0 1 .068-.821l.205-.89a5.965 5.965 0 0 1 .684-1.71 5.327 5.327 0 0 1 .958-1.3 10.291 10.291 0 0 1 1.573-1.163 5.6 5.6 0 0 1 3.01-.752h3.827a5.432 5.432 0 0 1 3.01.752 10.286 10.286 0 0 1 1.573 1.163 8 8 0 0 1 .958 1.3 5.965 5.965 0 0 1 .684 1.71 3.612 3.612 0 0 1 .068.889 3.067 3.067 0 0 0 .068.821 4.844 4.844 0 0 0 .068.958v1.984h-4.72v-5.13h-4.583l-1.026.205a1.351 1.351 0 0 0-.752.41 3.442 3.442 0 0 0-.684.889 3.686 3.686 0 0 0-.205 1.5l-.068 3.283v25.445l.068 3.283a11.251 11.251 0 0 0 .205 1.5 3.442 3.442 0 0 0 .684.889 2.5 2.5 0 0 0 .958.479 7.617 7.617 0 0 0 1.163.137h1.7a6.019 6.019 0 0 1 1.026-.342M118.333.4h4.65v41.382h10.192V46.3h-14.843zm18.8 0h14.5v4.446h-9.78v11.97h6.36v4.446h-6.36v20.59h10.4v4.45h-15.12zm-67.58 3.215a3.211 3.211 0 1 1-6.43 0 3.211 3.211 0 1 1 6.43 0m-3.216 6.293a4.146 4.146 0 0 1-2.394-.752v37.14h4.72V9.166a3.936 3.936 0 0 1-2.326.752M85.5 16.69a3.353 3.353 0 0 1-3.557 3.488h-3.557V4.856h4.378a2.481 2.481 0 0 1 2.668 2.462l.068 9.37zm5.062 26.2v-15.46s-.4-4.993-5.062-4.993c0 0 4.72.4 4.72-3.488V4.924S90.357.4 84.543.4H73.667v45.9h4.72V25.65h5.472s1.915-.205 1.915 3.078v15.048a2.826 2.826 0 0 0 3.146 2.736h3.625v-.274a4.233 4.233 0 0 1-1.984-3.352z"/></svg>