<svg xmlns="http://www.w3.org/2000/svg" width="39.902" height="39.903" xmlns:v="https://vecta.io/nano"><style>.B{mix-blend-mode:soft-light}.B,.D{isolation:isolate}.D{mix-blend-mode:multiply}</style><path d="M19.95 39.9A19.95 19.95 0 0 0 34.056 5.844 19.95 19.95 0 0 0 0 19.953C.001 30.97 8.933 39.9 19.95 39.9z" fill="#fff"/><g class="B"><path d="M19.95 0C9.023.068.21 8.963.245 19.9s8.902 19.767 19.83 19.767 19.795-8.84 19.83-19.767S31.124.068 20.197 0a2.42 2.42 0 0 0-.247 0zm0 34.2c-5.765.002-10.964-3.47-13.17-8.796S5.79 13.947 9.867 9.87 20.075 4.575 25.4 6.782s8.798 7.406 8.796 13.17c.037 3.742-1.413 7.345-4.033 10.017s-6.193 4.194-9.935 4.23z" fill="#32ad79"/></g><g class="D"><path d="M7.693 21.943A14.11 14.11 0 0 1 21.671 7.695h.28a13.43 13.43 0 0 1 9.117 3.419 14.21 14.21 0 0 0-25.369 8.834c-.048 4.207 1.845 8.202 5.132 10.83a13.38 13.38 0 0 1-3.137-8.834z" fill="rgba(50,173,121,.3)"/></g><path d="M18.5 11.823h-3.165v14.452H18.5zm6.667 6.793a4.25 4.25 0 0 0 .75-2.42c.01-1.165-.463-2.283-1.308-3.086-.83-.838-1.965-1.303-3.144-1.287h-2.5v3.1h2.5a1.37 1.37 0 0 1 1.249.833 1.32 1.32 0 0 1-.275 1.454c-.247.262-.594.407-.954.4h-2.5v2.9h3.286a1.37 1.37 0 0 1 .966.387 1.32 1.32 0 0 1 .3 1.462 1.36 1.36 0 0 1-1.249.833h-3.335v3.1h3.486a4.38 4.38 0 0 0 3.02-1.333 4.33 4.33 0 0 0-.071-6.118l-.208-.192z" fill="#32ad79"/></svg>